<svg width="16" height="17" viewBox="0 0 16 17" fill="none" xmlns="http://www.w3.org/2000/svg">
<path d="M5.82812 13.0508C5.74479 13.0508 5.66667 13.0352 5.59375 13.0039C5.52083 12.9727 5.45833 12.931 5.40625 12.8789C5.38542 12.8685 5.36979 12.8581 5.35938 12.8477C5.34896 12.8372 5.33854 12.8216 5.32812 12.8008L2.1875 9.66016C2.13542 9.60807 2.09115 9.54297 2.05469 9.46484C2.01823 9.38672 2 9.30599 2 9.22266C2 9.12891 2.01823 9.04557 2.05469 8.97266C2.09115 8.89974 2.13542 8.83203 2.1875 8.76953C2.3125 8.64453 2.46094 8.58203 2.63281 8.58203C2.80469 8.58203 2.95312 8.64453 3.07812 8.76953L5.82812 11.5195L12.9219 4.45703C12.974 4.40495 13.0391 4.36328 13.1172 4.33203C13.1953 4.30078 13.276 4.28516 13.3594 4.28516C13.4531 4.28516 13.5365 4.30078 13.6094 4.33203C13.6823 4.36328 13.75 4.40495 13.8125 4.45703C13.9375 4.58203 14 4.73047 14 4.90234C14 5.07422 13.9375 5.22266 13.8125 5.34766L6.26562 12.8633C6.21354 12.9154 6.15104 12.957 6.07812 12.9883C6.00521 13.0195 5.92188 13.0352 5.82812 13.0352V13.0508Z" fill="#324DC7"/>
</svg>
