<svg width="16" height="17" viewBox="0 0 16 17" fill="none" xmlns="http://www.w3.org/2000/svg">
<g clip-path="url(#clip0_7281_2913)">
<path d="M14.8281 16.9414H1.17188C0.848958 16.9414 0.572917 16.8268 0.34375 16.5977C0.114583 16.3685 0 16.0924 0 15.7695V3.41016C0 3.08724 0.114583 2.8112 0.34375 2.58203C0.572917 2.35286 0.848958 2.23828 1.17188 2.23828H14.8281C15.151 2.23828 15.4271 2.35286 15.6562 2.58203C15.8854 2.8112 16 3.08724 16 3.41016V15.7695C16 16.0924 15.8854 16.3685 15.6562 16.5977C15.4271 16.8268 15.151 16.9414 14.8281 16.9414ZM1.17188 3.26953C1.13021 3.26953 1.09635 3.28255 1.07031 3.30859C1.04427 3.33464 1.03125 3.36849 1.03125 3.41016V15.7695C1.03125 15.8112 1.04427 15.8451 1.07031 15.8711C1.09635 15.8971 1.13021 15.9102 1.17188 15.9102H14.8281C14.8698 15.9102 14.9036 15.8971 14.9297 15.8711C14.9557 15.8451 14.9688 15.8112 14.9688 15.7695V3.41016C14.9688 3.36849 14.9557 3.33464 14.9297 3.30859C14.9036 3.28255 14.8698 3.26953 14.8281 3.26953H1.17188ZM3.76562 5.22266C3.63021 5.22266 3.51302 5.17318 3.41406 5.07422C3.3151 4.97526 3.26562 4.85286 3.26562 4.70703V1.45703C3.26562 1.3112 3.3151 1.1888 3.41406 1.08984C3.51302 0.990886 3.63021 0.941406 3.76562 0.941406C3.91146 0.941406 4.03385 0.990886 4.13281 1.08984C4.23177 1.1888 4.28125 1.3112 4.28125 1.45703V4.70703C4.28125 4.85286 4.23177 4.97526 4.13281 5.07422C4.03385 5.17318 3.91146 5.22266 3.76562 5.22266ZM12.2344 5.22266C12.0885 5.22266 11.9661 5.17318 11.8672 5.07422C11.7682 4.97526 11.7188 4.85286 11.7188 4.70703V1.45703C11.7188 1.3112 11.7682 1.1888 11.8672 1.08984C11.9661 0.990886 12.0885 0.941406 12.2344 0.941406C12.3698 0.941406 12.487 0.990886 12.5859 1.08984C12.6849 1.1888 12.7344 1.3112 12.7344 1.45703V4.70703C12.7344 4.85286 12.6849 4.97526 12.5859 5.07422C12.487 5.17318 12.3698 5.22266 12.2344 5.22266ZM15.4844 7.17578H0.515625C0.369792 7.17578 0.247396 7.1263 0.148438 7.02734C0.0494792 6.92839 0 6.8112 0 6.67578C0 6.52995 0.0494792 6.40755 0.148438 6.30859C0.247396 6.20964 0.369792 6.16016 0.515625 6.16016H15.4844C15.6302 6.16016 15.7526 6.20964 15.8516 6.30859C15.9505 6.40755 16 6.52995 16 6.67578C16 6.8112 15.9505 6.92839 15.8516 7.02734C15.7526 7.1263 15.6302 7.17578 15.4844 7.17578Z" fill="#324DC7"/>
</g>
<defs>
<clipPath id="clip0_7281_2913">
<rect width="16" height="16" fill="white" transform="matrix(1 0 0 -1 0 16.9414)"/>
</clipPath>
</defs>
</svg>
