<svg width="14" height="17" viewBox="0 0 14 17" fill="none" xmlns="http://www.w3.org/2000/svg">
<path d="M3.85938 11.5977C3.78646 11.5977 3.71615 11.5846 3.64844 11.5586C3.58073 11.5326 3.52083 11.4935 3.46875 11.4414C3.38542 11.3581 3.33594 11.2617 3.32031 11.1523C3.30469 11.043 3.3125 10.9414 3.34375 10.8477L4.71875 7.62891C4.73958 7.59766 4.75781 7.56901 4.77344 7.54297C4.78906 7.51693 4.8125 7.48828 4.84375 7.45703L10.8594 1.45703C11.224 1.10286 11.6615 0.925781 12.1719 0.925781C12.6823 0.925781 13.1146 1.10286 13.4688 1.45703C13.8333 1.82161 14.0156 2.25911 14.0156 2.76953C14.0156 3.27995 13.8333 3.71224 13.4688 4.06641L7.46875 10.0664C7.46875 10.0664 7.44792 10.0846 7.40625 10.1211C7.36458 10.1576 7.32812 10.181 7.29688 10.1914L4.09375 11.5664C4.05208 11.5768 4.01562 11.5846 3.98438 11.5898C3.95312 11.5951 3.91667 11.5977 3.875 11.5977H3.85938ZM5.70312 8.16016L4.90625 10.0195L6.76562 9.22266L12.6875 3.28516C12.8333 3.14974 12.9062 2.97786 12.9062 2.76953C12.9062 2.5612 12.8333 2.38411 12.6875 2.23828C12.5417 2.09245 12.3646 2.01953 12.1562 2.01953C11.9479 2.01953 11.7708 2.09245 11.625 2.23828L5.70312 8.16016ZM12.3438 4.95703C12.2708 4.95703 12.2005 4.94401 12.1328 4.91797C12.0651 4.89193 12.0052 4.85286 11.9531 4.80078L10.125 2.97266C10.0208 2.86849 9.96875 2.74089 9.96875 2.58984C9.96875 2.4388 10.0208 2.3112 10.125 2.20703C10.2292 2.10286 10.3568 2.05078 10.5078 2.05078C10.6589 2.05078 10.7865 2.10286 10.8906 2.20703L12.7188 4.03516C12.8229 4.13932 12.875 4.26693 12.875 4.41797C12.875 4.56901 12.8229 4.69661 12.7188 4.80078C12.6667 4.85286 12.6068 4.89193 12.5391 4.91797C12.4714 4.94401 12.401 4.95703 12.3281 4.95703H12.3438ZM7.15625 10.1445C7.09375 10.1445 7.02865 10.1341 6.96094 10.1133C6.89323 10.0924 6.82812 10.0508 6.76562 9.98828L4.9375 8.16016C4.83333 8.05599 4.78125 7.92839 4.78125 7.77734C4.78125 7.6263 4.83333 7.4987 4.9375 7.39453C5.04167 7.29036 5.16927 7.23828 5.32031 7.23828C5.47135 7.23828 5.59896 7.29036 5.70312 7.39453L7.54688 9.22266C7.65104 9.32682 7.70312 9.45443 7.70312 9.60547C7.70312 9.75651 7.65104 9.88411 7.54688 9.98828C7.48438 10.0508 7.41927 10.0924 7.35156 10.1133C7.28385 10.1341 7.21875 10.1445 7.15625 10.1445ZM11.1406 16.832H1.42188C1.08854 16.832 0.807292 16.7148 0.578125 16.4805C0.348958 16.2461 0.234375 15.9674 0.234375 15.6445V2.01953C0.234375 1.6862 0.351562 1.40495 0.585938 1.17578C0.820312 0.946614 1.09896 0.832031 1.42188 0.832031H8.9375C9.08333 0.832031 9.21094 0.884114 9.32031 0.988281C9.42969 1.09245 9.48438 1.22266 9.48438 1.37891C9.48438 1.53516 9.42969 1.66536 9.32031 1.76953C9.21094 1.8737 9.08333 1.92578 8.9375 1.92578H1.42188C1.39062 1.92578 1.36458 1.9362 1.34375 1.95703C1.32292 1.97786 1.3125 2.00391 1.3125 2.03516V15.6445C1.3125 15.6758 1.32292 15.6992 1.34375 15.7148C1.36458 15.7305 1.39062 15.7383 1.42188 15.7383H11.1406C11.1719 15.7383 11.1953 15.7279 11.2109 15.707C11.2266 15.6862 11.2344 15.6654 11.2344 15.6445V7.48828C11.2344 7.33203 11.2891 7.19922 11.3984 7.08984C11.5078 6.98047 11.6406 6.92578 11.7969 6.92578C11.9427 6.92578 12.0703 6.98047 12.1797 7.08984C12.2891 7.19922 12.3438 7.33203 12.3438 7.48828V15.6445C12.3438 15.9779 12.2266 16.2591 11.9922 16.4883C11.7578 16.7174 11.474 16.832 11.1406 16.832Z" fill="#324DC7"/>
</svg>
