<svg width="46" height="40" viewBox="0 0 46 40" fill="none" xmlns="http://www.w3.org/2000/svg">
<g clip-path="url(#clip0_7859_8732)">
<path opacity="0.39" d="M26.1984 25.3H4.59844C3.99844 25.3 3.39844 24.8 3.39844 24.1V23.7C3.39844 23.1 3.89844 22.5 4.59844 22.5H26.1984C26.7984 22.5 27.3984 23 27.3984 23.7V24.1C27.3984 24.8 26.8984 25.3 26.1984 25.3Z" fill="#999999"/>
<path d="M6.2969 14.7992H24.3969V20.7992H6.2969V14.7992ZM24.4969 4.49925C24.4982 4.2625 24.4526 4.02784 24.3626 3.80885C24.2726 3.58987 24.1401 3.39091 23.9727 3.2235C23.8052 3.05609 23.6063 2.92355 23.3873 2.83356C23.1683 2.74357 22.9337 2.69792 22.6969 2.69925H8.0969C7.86015 2.69792 7.62549 2.74357 7.40651 2.83356C7.18752 2.92355 6.98856 3.05609 6.82115 3.2235C6.65374 3.39091 6.52121 3.58987 6.43122 3.80885C6.34123 4.02784 6.29558 4.2625 6.2969 4.49925V7.19925H24.4969V4.49925Z" fill="#FFCA38" stroke="black" stroke-width="0.5" stroke-miterlimit="10" stroke-linecap="round" stroke-linejoin="round"/>
<path d="M6.29688 7.19922H24.3969V14.7992H6.29688V7.19922Z" fill="#00C4EF" stroke="black" stroke-width="0.5" stroke-miterlimit="10" stroke-linecap="round" stroke-linejoin="round"/>
<path d="M10.2031 4.10156H20.6031V5.70156H10.2031V4.10156Z" fill="#AB8787" stroke="black" stroke-width="0.5" stroke-miterlimit="10" stroke-linecap="round" stroke-linejoin="round"/>
<path d="M8.50156 23.7008H8.20156C7.91063 23.6982 7.63236 23.5814 7.42663 23.3757C7.2209 23.17 7.10417 22.8917 7.10156 22.6008V20.8008H9.50156V22.6008C9.50156 23.2008 9.10156 23.7008 8.50156 23.7008ZM22.6016 23.7008H22.3016C22.0106 23.6982 21.7324 23.5814 21.5266 23.3757C21.3209 23.17 21.2042 22.8917 21.2016 22.6008V20.8008H23.6016V22.6008C23.7016 23.2008 23.2016 23.7008 22.6016 23.7008Z" fill="#424242" stroke="black" stroke-width="0.5" stroke-miterlimit="10" stroke-linecap="round" stroke-linejoin="round"/>
<path d="M9.39844 18.8984C9.95072 18.8984 10.3984 18.4507 10.3984 17.8984C10.3984 17.3462 9.95072 16.8984 9.39844 16.8984C8.84615 16.8984 8.39844 17.3462 8.39844 17.8984C8.39844 18.4507 8.84615 18.8984 9.39844 18.8984Z" fill="white" stroke="black" stroke-width="0.5" stroke-miterlimit="10" stroke-linecap="round" stroke-linejoin="round"/>
<path d="M21.3984 18.8984C21.9507 18.8984 22.3984 18.4507 22.3984 17.8984C22.3984 17.3462 21.9507 16.8984 21.3984 16.8984C20.8462 16.8984 20.3984 17.3462 20.3984 17.8984C20.3984 18.4507 20.8462 18.8984 21.3984 18.8984Z" fill="white" stroke="black" stroke-width="0.5" stroke-miterlimit="10" stroke-linecap="round" stroke-linejoin="round"/>
<path d="M24.5 10.6992H26.3V14.7992H24.5V10.6992ZM4.5 10.6992H6.3V14.7992H4.5V10.6992Z" fill="#FFCA38" stroke="black" stroke-width="0.5" stroke-miterlimit="10" stroke-linecap="round" stroke-linejoin="round"/>
<path d="M9 11L12.9 14.8M17.4 11L21.4 14.8" stroke="black" stroke-width="0.5" stroke-miterlimit="10" stroke-linecap="round" stroke-linejoin="round"/>
</g>
<defs>
<clipPath id="clip0_7859_8732">
<rect width="45" height="39" fill="white" transform="translate(0.5 0.5)"/>
</clipPath>
</defs>
</svg>
