<svg width="45" height="40" viewBox="0 0 45 40" fill="none" xmlns="http://www.w3.org/2000/svg">
<g clip-path="url(#clip0_7859_8186)">
<path opacity="0.39" d="M25.5969 25.1336H3.89687C3.60594 25.131 3.32766 25.0143 3.12193 24.8085C2.91621 24.6028 2.79948 24.3245 2.79688 24.0336V23.5336C2.79948 23.2427 2.91621 22.9644 3.12193 22.7587C3.32766 22.5529 3.60594 22.4362 3.89687 22.4336H25.5969C25.8878 22.4362 26.1661 22.5529 26.3718 22.7587C26.5775 22.9644 26.6943 23.2427 26.6969 23.5336V24.0336C26.6943 24.3245 26.5775 24.6028 26.3718 24.8085C26.1661 25.0143 25.8878 25.131 25.5969 25.1336Z" fill="#999999"/>
<path d="M12.8984 10.7305H22.9984L21.6984 23.8305H14.2984L12.8984 10.7305Z" fill="#FF6666" stroke="black" stroke-width="0.5" stroke-miterlimit="10" stroke-linejoin="round"/>
<path d="M8.10156 2.83047L12.3016 2.73047C12.9016 2.73047 13.5016 3.13047 13.7016 3.73047L14.7016 7.13047M11.4016 7.33047H24.3016M21.6016 23.8305H14.2016L12.5016 7.43047H23.3016L21.6016 23.8305Z" stroke="black" stroke-width="0.5" stroke-miterlimit="10" stroke-linecap="round" stroke-linejoin="round"/>
<path d="M14.9031 20.6336H7.00313C6.60313 20.6336 6.20312 20.2336 6.20312 19.8336V18.7336C6.20312 18.3336 6.60313 17.9336 7.00313 17.9336H14.9031C15.3031 17.9336 15.7031 18.3336 15.7031 18.7336V19.8336C15.7031 20.2336 15.3031 20.6336 14.9031 20.6336Z" fill="#FE6264" stroke="black" stroke-width="0.5" stroke-miterlimit="10" stroke-linecap="round" stroke-linejoin="round"/>
<path d="M5.20312 20.4335H16.6031V21.6335C16.5979 22.2153 16.3644 22.7719 15.953 23.1833C15.5415 23.5948 14.985 23.8282 14.4031 23.8335H7.40312C6.82126 23.8282 6.26471 23.5948 5.85326 23.1833C5.4418 22.7719 5.20834 22.2153 5.20312 21.6335V20.4335ZM5.30313 17.8335H16.6031C16.6031 15.3335 14.9031 13.4335 10.9031 13.4335C7.00312 13.3335 5.30313 15.2335 5.30313 17.8335Z" fill="#FFCA38" stroke="black" stroke-width="0.5" stroke-miterlimit="10" stroke-linecap="round" stroke-linejoin="round"/>
<path d="M8.29688 20.4336C8.29688 20.4336 11.8969 21.3336 11.9969 22.0336C12.0969 22.7336 14.4969 22.9336 15.3969 20.4336H8.29688Z" fill="#4ACCA9" stroke="black" stroke-width="0.5" stroke-miterlimit="10" stroke-linecap="round" stroke-linejoin="round"/>
</g>
<defs>
<clipPath id="clip0_7859_8186">
<rect width="45" height="39" fill="white" transform="translate(0 0.332031)"/>
</clipPath>
</defs>
</svg>
