<svg width="45" height="40" viewBox="0 0 45 40" fill="none" xmlns="http://www.w3.org/2000/svg">
<g clip-path="url(#clip0_7859_8323)">
<path d="M15.0969 40.932C15.5387 40.932 15.8969 40.5739 15.8969 40.132C15.8969 39.6902 15.5387 39.332 15.0969 39.332C14.655 39.332 14.2969 39.6902 14.2969 40.132C14.2969 40.5739 14.655 40.932 15.0969 40.932Z" fill="#424242" stroke="black" stroke-width="0.5" stroke-miterlimit="10" stroke-linecap="round" stroke-linejoin="round"/>
<path opacity="0.39" d="M24.4969 23.7336H3.99688C3.39688 23.7336 2.79688 23.2336 2.79688 22.5336V22.1336C2.79688 21.5336 3.29688 20.9336 3.99688 20.9336H24.4969C25.0969 20.9336 25.6969 21.4336 25.6969 22.1336V22.5336C25.5969 23.2336 25.0969 23.7336 24.4969 23.7336Z" fill="#999999"/>
<path d="M7.9 20.2328L21.1 7.03282C21.4 6.73282 21.4 6.23281 21.1 5.93281L20.9 5.73281C20.6 5.43281 20.1 5.43281 19.8 5.73281L6.6 18.9328C6.3 19.2328 6.3 19.7328 6.6 20.0328L6.8 20.2328C7.1 20.5328 7.6 20.5328 7.9 20.2328Z" fill="#FFCA38" stroke="black" stroke-width="0.5" stroke-miterlimit="10" stroke-linecap="round" stroke-linejoin="round"/>
<path d="M5.43769 14.4753L7.27569 12.6373L14.2057 19.5673L12.3677 21.4053L5.43769 14.4753ZM5.05469 16.6953L6.32769 15.4223L11.2777 20.3723L10.0047 21.6453L5.05469 16.6953ZM13.6277 6.36535L15.4657 4.52734L22.3957 11.4573L20.5577 13.2953L13.6277 6.36535Z" fill="#AB8787" stroke="black" stroke-width="0.5" stroke-miterlimit="10" stroke-linecap="round" stroke-linejoin="round"/>
<path d="M16.4141 5.48394L17.6871 4.21094L22.6371 9.16094L21.3641 10.4339L16.4141 5.48394Z" fill="#AB8787" stroke="black" stroke-width="0.5" stroke-miterlimit="10" stroke-linecap="round" stroke-linejoin="round"/>
</g>
<defs>
<clipPath id="clip0_7859_8323">
<rect width="45" height="39" fill="white" transform="translate(0 0.332031)"/>
</clipPath>
</defs>
</svg>
