<svg width="45" height="39" viewBox="0 0 45 39" fill="none" xmlns="http://www.w3.org/2000/svg">
<g clip-path="url(#clip0_7859_7693)">
<path opacity="0.39" d="M24.9969 23.3H4.49687C3.89687 23.3 3.29688 22.8 3.29688 22.1V21.7C3.29688 21.1 3.79687 20.5 4.49687 20.5H24.9969C25.5969 20.5 26.1969 21 26.1969 21.7V22.1C26.1969 22.8 25.6969 23.3 24.9969 23.3Z" fill="#999999"/>
<path d="M4.29688 5.2V21.3H5.69687V5.2C5.69687 5.1 5.59687 5 5.49687 5H4.39687C4.29687 5 4.29688 5.1 4.29688 5.2ZM5.69687 14.4H25.0969C25.1969 14.4 25.2969 14.5 25.2969 14.6V17H5.69687V14.4Z" fill="#AB8787" stroke="black" stroke-width="0.5" stroke-miterlimit="10" stroke-linecap="round" stroke-linejoin="round"/>
<path d="M6.10313 11.1992H12.6031V14.4992H5.70312V11.5992C5.70312 11.2992 5.90313 11.1992 6.10313 11.1992Z" fill="#DDDDDD" stroke="black" stroke-width="0.5" stroke-miterlimit="10" stroke-linecap="round" stroke-linejoin="round"/>
<path d="M15.8984 11.1992H24.1984C24.3984 11.1992 24.5984 11.3992 24.5984 11.5992V14.4992H15.8984V11.1992Z" fill="#5081D8" stroke="black" stroke-width="0.5" stroke-miterlimit="10" stroke-linejoin="round"/>
<path d="M23.7969 17H25.1969V21.3H23.7969V17Z" fill="#AB8787" stroke="black" stroke-width="0.5" stroke-miterlimit="10" stroke-linecap="round" stroke-linejoin="round"/>
<path d="M13.0016 10.1016H15.5016C15.7016 10.1016 15.9016 10.3016 15.9016 10.5016V14.5016H12.6016V10.5016C12.6016 10.2016 12.8016 10.1016 13.0016 10.1016Z" fill="#00C4EF" stroke="black" stroke-width="0.5" stroke-miterlimit="10" stroke-linecap="round" stroke-linejoin="round"/>
<path d="M7.79893 8.99814H10.1989C10.6989 8.99814 11.1989 9.39814 11.1989 9.99814V10.1981C11.1989 10.6981 10.7989 11.1981 10.1989 11.1981H7.79893C7.29893 11.1981 6.79893 10.7981 6.79893 10.1981V9.99814C6.79009 9.86454 6.80989 9.73058 6.85702 9.60525C6.90414 9.47991 6.97751 9.3661 7.0722 9.27141C7.16688 9.17673 7.28069 9.10337 7.40603 9.05624C7.53136 9.00911 7.66532 8.98931 7.79893 8.99814Z" fill="#DDDDDD" stroke="black" stroke-width="0.5" stroke-miterlimit="10" stroke-linecap="round" stroke-linejoin="round"/>
</g>
<defs>
<clipPath id="clip0_7859_7693">
<rect width="45" height="39" fill="white"/>
</clipPath>
</defs>
</svg>
