<svg width="16" height="17" viewBox="0 0 16 17" fill="none" xmlns="http://www.w3.org/2000/svg">
<g clip-path="url(#clip0_7281_5038)">
<path d="M8.40625 11.4414H8.375C8.32292 11.4414 8.27604 11.4362 8.23438 11.4258C8.19271 11.4154 8.15104 11.3997 8.10938 11.3789L1.0625 7.53516C0.96875 7.48307 0.895833 7.41536 0.84375 7.33203C0.791667 7.2487 0.770833 7.15495 0.78125 7.05078C0.78125 6.95703 0.807292 6.86589 0.859375 6.77734C0.911458 6.6888 0.979167 6.61849 1.0625 6.56641L8.14062 2.86328C8.22396 2.82161 8.3099 2.80078 8.39844 2.80078C8.48698 2.80078 8.57292 2.82161 8.65625 2.86328L15.7188 6.56641C15.8125 6.61849 15.8854 6.6888 15.9375 6.77734C15.9896 6.86589 16.0156 6.95703 16.0156 7.05078C16.0156 7.15495 15.9896 7.2513 15.9375 7.33984C15.8854 7.42839 15.8177 7.49349 15.7344 7.53516L8.6875 11.3789C8.64583 11.3997 8.60156 11.4154 8.55469 11.4258C8.50781 11.4362 8.46354 11.4414 8.42188 11.4414H8.40625ZM2.48438 7.06641L8.39062 10.2852L14.2969 7.06641L8.39062 3.95703L2.48438 7.06641ZM8.39062 14.6602C7.95312 14.6602 7.52083 14.6237 7.09375 14.5508C6.65625 14.4779 6.22917 14.3737 5.8125 14.2383C5.39583 14.1029 4.98438 13.931 4.57812 13.7227C4.18229 13.5143 3.80208 13.2747 3.4375 13.0039C3.36458 12.9518 3.30729 12.8867 3.26562 12.8086C3.22396 12.7305 3.20312 12.6497 3.20312 12.5664V8.37891C3.20312 8.23307 3.25781 8.10547 3.36719 7.99609C3.47656 7.88672 3.60938 7.83203 3.76562 7.83203C3.92188 7.83203 4.05208 7.88411 4.15625 7.98828C4.26042 8.09245 4.3125 8.22266 4.3125 8.37891V12.2852C4.92708 12.7122 5.58333 13.0299 6.28125 13.2383C6.97917 13.4466 7.6849 13.5508 8.39844 13.5508C9.11198 13.5508 9.81771 13.4466 10.5156 13.2383C11.2031 13.0299 11.8594 12.7122 12.4844 12.2852V8.37891C12.4844 8.23307 12.5365 8.10547 12.6406 7.99609C12.7448 7.88672 12.875 7.83203 13.0312 7.83203C13.1875 7.83203 13.3177 7.88411 13.4219 7.98828C13.526 8.09245 13.5781 8.22266 13.5781 8.37891V12.5664C13.5781 12.6497 13.5599 12.7305 13.5234 12.8086C13.487 12.8867 13.4323 12.9518 13.3594 13.0039C12.9948 13.2747 12.6094 13.5143 12.2031 13.7227C11.8073 13.931 11.3984 14.1029 10.9766 14.2383C10.5547 14.3737 10.1302 14.4779 9.70312 14.5508C9.26562 14.6237 8.83333 14.6602 8.40625 14.6602H8.39062ZM8.65625 7.69141L1.25 7.62891C1.10417 7.62891 0.976562 7.57422 0.867188 7.46484C0.757812 7.35547 0.703125 7.22786 0.703125 7.08203C0.703125 6.9362 0.757812 6.80859 0.867188 6.69922C0.976562 6.58984 1.10938 6.53516 1.26562 6.53516L8.67188 6.59766C8.81771 6.59766 8.94271 6.65234 9.04688 6.76172C9.15104 6.87109 9.20312 7.00391 9.20312 7.16016C9.20312 7.30599 9.15104 7.43099 9.04688 7.53516C8.94271 7.63932 8.8125 7.69141 8.65625 7.69141ZM2.09375 14.6289H0.546875C0.473958 14.6289 0.403646 14.6159 0.335938 14.5898C0.268229 14.5638 0.208333 14.5247 0.15625 14.4727C0.104167 14.4206 0.0651042 14.3607 0.0390625 14.293C0.0130208 14.2253 0 14.1549 0 14.082C0 13.5299 0.078125 12.9023 0.234375 12.1992C0.390625 11.4961 0.75 11.1445 1.3125 11.1445C1.88542 11.1445 2.2474 11.4961 2.39844 12.1992C2.54948 12.9023 2.63021 13.5299 2.64062 14.082C2.64062 14.1549 2.6276 14.2253 2.60156 14.293C2.57552 14.3607 2.53646 14.4206 2.48438 14.4727C2.43229 14.5247 2.3724 14.5638 2.30469 14.5898C2.23698 14.6159 2.16667 14.6289 2.09375 14.6289ZM1.125 13.5352H1.51562C1.49479 13.3164 1.46875 13.1081 1.4375 12.9102C1.40625 12.7122 1.36458 12.5508 1.3125 12.4258C1.27083 12.5508 1.23438 12.7122 1.20312 12.9102C1.17188 13.1081 1.14583 13.3164 1.125 13.5352ZM1.3125 12.2383C1.16667 12.2383 1.03906 12.1862 0.929688 12.082C0.820312 11.9779 0.765625 11.8477 0.765625 11.6914V7.12891C0.765625 6.97266 0.820312 6.83984 0.929688 6.73047C1.03906 6.62109 1.16667 6.56641 1.3125 6.56641C1.46875 6.56641 1.60156 6.62109 1.71094 6.73047C1.82031 6.83984 1.875 6.97266 1.875 7.12891V11.6914C1.875 11.8372 1.82031 11.9648 1.71094 12.0742C1.60156 12.1836 1.46875 12.2383 1.3125 12.2383Z" fill="#324DC7"/>
</g>
<defs>
<clipPath id="clip0_7281_5038">
<rect width="16" height="16" fill="white" transform="matrix(1 0 0 -1 0 16.7227)"/>
</clipPath>
</defs>
</svg>
