<svg width="14" height="15" viewBox="0 0 14 15" fill="none" xmlns="http://www.w3.org/2000/svg">
<path d="M7 14.3711C6.30729 14.3711 5.63053 14.2708 4.96973 14.0703C4.30892 13.8698 3.69141 13.5781 3.11719 13.1953C2.53385 12.8034 2.02344 12.3408 1.58594 11.8076C1.14844 11.2744 0.797526 10.6888 0.533203 10.0508C0.26888 9.41276 0.102539 8.74967 0.0341797 8.06152C-0.0341797 7.37337 0 6.6875 0.136719 6.00391C0.273438 5.32031 0.505859 4.67546 0.833984 4.06934C1.16211 3.46322 1.56771 2.91406 2.05078 2.42188C2.54297 1.92969 3.09212 1.51953 3.69824 1.19141C4.30436 0.863281 4.94922 0.635417 5.63281 0.507812C6.31641 0.371094 7 0.336914 7.68359 0.405273C8.36719 0.473633 9.03255 0.639974 9.67969 0.904297C10.3177 1.16862 10.9033 1.51953 11.4365 1.95703C11.9697 2.39453 12.4323 2.90495 12.8242 3.48828C13.207 4.0625 13.4987 4.68001 13.6992 5.34082C13.8997 6.00163 14 6.67839 14 7.37109C14 7.83594 13.9544 8.29622 13.8633 8.75195C13.7721 9.19857 13.64 9.63151 13.4668 10.0508C13.2936 10.4701 13.0794 10.8711 12.8242 11.2539C12.569 11.6367 12.2773 11.9922 11.9492 12.3203C11.6211 12.6484 11.2656 12.9401 10.8828 13.1953C10.5 13.4505 10.099 13.6647 9.67969 13.8379C9.26042 14.0111 8.82747 14.1432 8.38086 14.2344C7.92513 14.3255 7.46484 14.3711 7 14.3711ZM7 1.32812C6.79948 1.32812 6.60124 1.33724 6.40527 1.35547C6.20931 1.3737 6.01562 1.40104 5.82422 1.4375C5.23177 1.55599 4.6735 1.75423 4.14941 2.03223C3.62533 2.31022 3.14909 2.66341 2.7207 3.0918C2.29232 3.52018 1.93913 3.99642 1.66113 4.52051C1.38314 5.0446 1.1849 5.60286 1.06641 6.19531C0.947917 6.77865 0.918294 7.36654 0.977539 7.95898C1.03678 8.55143 1.18034 9.12565 1.4082 9.68164C1.63607 10.2376 1.93913 10.7458 2.31738 11.2061C2.69564 11.6663 3.13542 12.0605 3.63672 12.3887C4.12891 12.7259 4.66211 12.9811 5.23633 13.1543C5.81055 13.3275 6.39388 13.4141 6.98633 13.4141C7.39648 13.4141 7.79297 13.373 8.17578 13.291C8.56771 13.2181 8.94368 13.1064 9.30371 12.9561C9.66374 12.8057 10.0078 12.6211 10.3359 12.4023C10.6641 12.1836 10.974 11.9284 11.2656 11.6367C11.5482 11.3542 11.7988 11.0488 12.0176 10.7207C12.2363 10.3926 12.4209 10.0462 12.5713 9.68164C12.7217 9.31706 12.8333 8.94336 12.9062 8.56055C12.9883 8.16862 13.0293 7.77214 13.0293 7.37109C13.0293 6.76953 12.9427 6.18392 12.7695 5.61426C12.5964 5.0446 12.3457 4.50911 12.0176 4.00781C11.6803 3.51562 11.2816 3.0804 10.8213 2.70215C10.361 2.32389 9.85286 2.02083 9.29688 1.79297C8.93229 1.63802 8.55632 1.52181 8.16895 1.44434C7.78158 1.36686 7.38737 1.32812 6.98633 1.32812H7ZM8.12109 10.8027C8.12109 10.8301 8.11882 10.8551 8.11426 10.8779C8.1097 10.9007 8.09831 10.9212 8.08008 10.9395C8.07096 10.9668 8.05957 10.9896 8.0459 11.0078C8.03223 11.026 8.01172 11.0443 7.98438 11.0625C7.96615 11.0807 7.94564 11.0967 7.92285 11.1104C7.90006 11.124 7.87044 11.1354 7.83398 11.1445C7.81576 11.1536 7.79069 11.1605 7.75879 11.165C7.72689 11.1696 7.69727 11.1719 7.66992 11.1719H6.45312C6.41667 11.1719 6.38021 11.1696 6.34375 11.165C6.30729 11.1605 6.27083 11.1491 6.23438 11.1309C6.19792 11.1217 6.16602 11.1081 6.13867 11.0898C6.11133 11.0716 6.07943 11.0534 6.04297 11.0352C6.01562 11.0078 5.99284 10.9805 5.97461 10.9531C5.95638 10.9258 5.93815 10.8984 5.91992 10.8711C5.91081 10.8438 5.90169 10.8141 5.89258 10.7822C5.88346 10.7503 5.87891 10.7207 5.87891 10.6934V7.07031C5.87891 7.02474 5.8903 6.97917 5.91309 6.93359C5.93587 6.88802 5.97005 6.84701 6.01562 6.81055C6.05208 6.77409 6.09766 6.74674 6.15234 6.72852C6.20703 6.71029 6.26628 6.70117 6.33008 6.70117H7.66992C7.72461 6.70117 7.7793 6.71029 7.83398 6.72852C7.88867 6.74674 7.9388 6.77409 7.98438 6.81055C8.02083 6.84701 8.05046 6.88802 8.07324 6.93359C8.09603 6.97917 8.10742 7.02474 8.10742 7.07031V10.8027H8.12109ZM7 5.58008C7.28255 5.58008 7.52181 5.47982 7.71777 5.2793C7.91374 5.07878 8.01172 4.8418 8.01172 4.56836C8.01172 4.29492 7.91146 4.06022 7.71094 3.86426C7.51042 3.66829 7.27344 3.57031 7 3.57031C6.72656 3.57031 6.48958 3.66829 6.28906 3.86426C6.08854 4.06022 5.98828 4.29492 5.98828 4.56836C5.98828 4.8418 6.08854 5.07878 6.28906 5.2793C6.48958 5.47982 6.72656 5.58008 7 5.58008Z" fill="#324DC7"/>
</svg>
