<svg width="16" height="17" viewBox="0 0 16 17" fill="none" xmlns="http://www.w3.org/2000/svg">
<path d="M14.7969 15.2656H1.20312C0.880208 15.2656 0.598958 15.1276 0.359375 14.8516C0.119792 14.5755 0 14.2448 0 13.8594V3.79688C0 3.41146 0.117188 3.08073 0.351562 2.80469C0.585938 2.52865 0.869792 2.39062 1.20312 2.39062H14.7969C15.1198 2.39062 15.401 2.52865 15.6406 2.80469C15.8802 3.08073 16 3.41146 16 3.79688V13.8594C16 14.2448 15.8828 14.5755 15.6484 14.8516C15.4141 15.1276 15.1302 15.2656 14.7969 15.2656ZM1.21875 3.51562C1.21875 3.51562 1.20312 3.54167 1.17188 3.59375C1.14062 3.64583 1.125 3.71354 1.125 3.79688V13.8594C1.125 13.9427 1.13802 14.0078 1.16406 14.0547C1.1901 14.1016 1.21354 14.1302 1.23438 14.1406H14.7969C14.7969 14.1406 14.8099 14.1146 14.8359 14.0625C14.862 14.0104 14.875 13.9427 14.875 13.8594V3.79688C14.875 3.71354 14.862 3.64844 14.8359 3.60156C14.8099 3.55469 14.7865 3.52604 14.7656 3.51562H1.21875ZM8.125 12.2031C7.6875 12.2031 7.25521 12.1328 6.82812 11.9922C6.40104 11.8516 6.04167 11.5052 5.75 10.9531C5.67708 10.8177 5.66406 10.6745 5.71094 10.5234C5.75781 10.3724 5.84896 10.2656 5.98438 10.2031C6.11979 10.1198 6.26042 10.1016 6.40625 10.1484C6.55208 10.1953 6.66146 10.2865 6.73438 10.4219C6.88021 10.7135 7.05729 10.8984 7.26562 10.9766C7.47396 11.0547 7.76042 11.0938 8.125 11.0938C8.22917 11.0938 8.45052 11.0521 8.78906 10.9688C9.1276 10.8854 9.29688 10.6198 9.29688 10.1719C9.29688 9.77604 9.125 9.52344 8.78125 9.41406C8.4375 9.30469 8.13021 9.25 7.85938 9.25C7.29688 9.25 6.8151 9.05208 6.41406 8.65625C6.01302 8.26042 5.8125 7.77604 5.8125 7.20312C5.8125 6.64062 6.01302 6.16146 6.41406 5.76562C6.8151 5.36979 7.29688 5.17188 7.85938 5.17188C8.32812 5.17188 8.73958 5.24219 9.09375 5.38281C9.44792 5.52344 9.78125 5.83333 10.0938 6.3125C10.1875 6.4375 10.2188 6.57552 10.1875 6.72656C10.1562 6.8776 10.0729 6.99479 9.9375 7.07812C9.8125 7.16146 9.67448 7.1875 9.52344 7.15625C9.3724 7.125 9.25521 7.04688 9.17188 6.92188C8.99479 6.64062 8.81771 6.46354 8.64062 6.39062C8.46354 6.31771 8.20312 6.28125 7.85938 6.28125C7.60938 6.28125 7.39323 6.36979 7.21094 6.54688C7.02865 6.72396 6.9375 6.94271 6.9375 7.20312C6.9375 7.45312 7.02865 7.66927 7.21094 7.85156C7.39323 8.03385 7.60938 8.125 7.85938 8.125C8.79688 8.125 9.45573 8.34115 9.83594 8.77344C10.2161 9.20573 10.4062 9.67188 10.4062 10.1719C10.4062 10.8698 10.1641 11.3828 9.67969 11.7109C9.19531 12.0391 8.67708 12.2031 8.125 12.2031ZM8.04688 13.1406C7.89062 13.1406 7.75781 13.0859 7.64844 12.9766C7.53906 12.8672 7.48438 12.7344 7.48438 12.5781V4.79688C7.48438 4.64062 7.53906 4.50781 7.64844 4.39844C7.75781 4.28906 7.89062 4.23438 8.04688 4.23438C8.20312 4.23438 8.33594 4.28906 8.44531 4.39844C8.55469 4.50781 8.60938 4.64062 8.60938 4.79688V12.5781C8.60938 12.7344 8.55469 12.8672 8.44531 12.9766C8.33594 13.0859 8.20312 13.1406 8.04688 13.1406Z" fill="#324DC7"/>
</svg>
