<svg width="45" height="39" viewBox="0 0 45 39" fill="none" xmlns="http://www.w3.org/2000/svg">
<g clip-path="url(#clip0_7859_7998)">
<path opacity="0.39" d="M25.9969 24.3H5.49687C4.89687 24.3 4.29688 23.8 4.29688 23.1V22.7C4.29688 22.1 4.79687 21.5 5.49687 21.5H25.9969C26.5969 21.5 27.1969 22 27.1969 22.7V23.1C27.1969 23.8 26.5969 24.3 25.9969 24.3Z" fill="#999999"/>
<path d="M10.9985 8.89844V11.8984C10.9985 12.1984 10.8985 12.4984 10.7985 12.7984L7.59848 18.2984C7.39848 18.5984 7.39847 18.8984 7.39847 19.1984V20.4984C7.39714 20.7352 7.4428 20.9699 7.53279 21.1888C7.62278 21.4078 7.75532 21.6068 7.92273 21.7742C8.09014 21.9416 8.28908 22.0741 8.50807 22.1641C8.72705 22.2541 8.96172 22.2998 9.19847 22.2984H17.4985C17.7352 22.2998 17.9699 22.2541 18.1889 22.1641C18.4079 22.0741 18.6068 21.9416 18.7742 21.7742C18.9416 21.6068 19.0742 21.4078 19.1642 21.1888C19.2541 20.9699 19.2998 20.7352 19.2985 20.4984V19.1984C19.2985 18.8984 19.1985 18.5984 19.0985 18.2984L15.8985 12.7984C15.6985 12.4984 15.6985 12.1984 15.6985 11.8984V8.89844" fill="white"/>
<path d="M10.9985 8.89844V11.8984C10.9985 12.1984 10.8985 12.4984 10.7985 12.7984L7.59848 18.2984C7.39848 18.5984 7.39847 18.8984 7.39847 19.1984V20.4984C7.39714 20.7352 7.4428 20.9699 7.53279 21.1888C7.62278 21.4078 7.75532 21.6068 7.92273 21.7742C8.09014 21.9416 8.28908 22.0741 8.50807 22.1641C8.72705 22.2541 8.96172 22.2998 9.19847 22.2984H17.4985C17.7352 22.2998 17.9699 22.2541 18.1889 22.1641C18.4079 22.0741 18.6068 21.9416 18.7742 21.7742C18.9416 21.6068 19.0742 21.4078 19.1642 21.1888C19.2541 20.9699 19.2998 20.7352 19.2985 20.4984V19.1984C19.2985 18.8984 19.1985 18.5984 19.0985 18.2984L15.8985 12.7984C15.6985 12.4984 15.6985 12.1984 15.6985 11.8984V8.89844" stroke="black" stroke-width="0.5" stroke-miterlimit="10" stroke-linecap="round" stroke-linejoin="round"/>
<path d="M19.1032 19.2016V20.5016C19.1045 20.7383 19.0588 20.973 18.9688 21.192C18.8788 21.4109 18.7463 21.6099 18.5789 21.7773C18.4115 21.9447 18.2125 22.0773 17.9936 22.1672C17.7746 22.2572 17.5399 22.3029 17.3032 22.3016H9.00316C8.76641 22.3029 8.53174 22.2572 8.31276 22.1672C8.09377 22.0773 7.89481 21.9447 7.7274 21.7773C7.55999 21.6099 7.42746 21.4109 7.33748 21.192C7.24749 20.973 7.20183 20.7383 7.20315 20.5016V19.2016C7.20315 18.9016 7.30315 18.6016 7.40315 18.3016L10.1032 13.6016H16.0032L18.7032 18.3016C19.1032 18.6016 19.1032 18.9016 19.1032 19.2016Z" fill="#FFCA38" stroke="black" stroke-width="0.5" stroke-miterlimit="10" stroke-linecap="round" stroke-linejoin="round"/>
<path d="M9.60156 8.60156H16.8016" stroke="black" stroke-width="0.5" stroke-miterlimit="10" stroke-linecap="round" stroke-linejoin="round"/>
<path d="M11.5 6.69922C12.0523 6.69922 12.5 6.2515 12.5 5.69922C12.5 5.14693 12.0523 4.69922 11.5 4.69922C10.9477 4.69922 10.5 5.14693 10.5 5.69922C10.5 6.2515 10.9477 6.69922 11.5 6.69922Z" fill="#FFCA38" stroke="black" stroke-width="0.5" stroke-miterlimit="10" stroke-linecap="round" stroke-linejoin="round"/>
<path d="M8.5 4.39844C9.32843 4.39844 10 3.72686 10 2.89844C10 2.07001 9.32843 1.39844 8.5 1.39844C7.67157 1.39844 7 2.07001 7 2.89844C7 3.72686 7.67157 4.39844 8.5 4.39844Z" fill="#FFCA38" stroke="black" stroke-width="0.5" stroke-miterlimit="10" stroke-linecap="round" stroke-linejoin="round"/>
<path d="M21.897 18.1016H21.397C21.1861 18.1042 20.9769 18.0647 20.7815 17.9852C20.5862 17.9058 20.4088 17.788 20.2596 17.6389C20.1105 17.4898 19.9928 17.3124 19.9133 17.117C19.8339 16.9217 19.7943 16.7124 19.797 16.5016V6.60156H23.497V16.5016C23.497 17.3016 22.797 18.1016 21.897 18.1016Z" fill="white" stroke="black" stroke-width="0.5" stroke-miterlimit="10" stroke-linecap="round" stroke-linejoin="round"/>
<path d="M21.897 18.1H21.397C21.1861 18.1027 20.9769 18.0631 20.7815 17.9837C20.5862 17.9042 20.4088 17.7865 20.2596 17.6374C20.1105 17.4882 19.9928 17.3108 19.9133 17.1155C19.8339 16.9201 19.7943 16.7109 19.797 16.5V10H23.497V16.5C23.497 17.3 22.797 18.1 21.897 18.1Z" fill="#4ACCA9" stroke="black" stroke-width="0.5" stroke-miterlimit="10" stroke-linecap="round" stroke-linejoin="round"/>
<path d="M18.7031 6.60156H24.5031" stroke="black" stroke-width="0.5" stroke-miterlimit="10" stroke-linecap="round" stroke-linejoin="round"/>
</g>
<defs>
<clipPath id="clip0_7859_7998">
<rect width="45" height="39" fill="white"/>
</clipPath>
</defs>
</svg>
