<svg width="18" height="23" viewBox="0 0 18 23" fill="none" xmlns="http://www.w3.org/2000/svg">
<path d="M9 2.001C7.14348 2.001 5.36301 2.7385 4.05025 4.05125C2.7375 5.36401 2 7.14448 2 9.001C2 11.863 3.782 14.624 5.738 16.763C6.73814 17.8526 7.82943 18.8549 9 19.759C9.17467 19.625 9.37967 19.4617 9.615 19.269C10.5548 18.4973 11.4393 17.6605 12.262 16.765C14.218 14.624 16 11.864 16 9.001C16 7.14448 15.2625 5.36401 13.9497 4.05125C12.637 2.7385 10.8565 2.001 9 2.001ZM9 22.215L8.433 21.825L8.43 21.823L8.424 21.818L8.404 21.804L8.329 21.751L8.059 21.554C6.69086 20.5258 5.41988 19.3743 4.262 18.114C2.218 15.876 0 12.637 0 9C3.55683e-08 6.61305 0.948211 4.32387 2.63604 2.63604C4.32387 0.948212 6.61305 0 9 0C11.3869 0 13.6761 0.948212 15.364 2.63604C17.0518 4.32387 18 6.61305 18 9C18 12.637 15.782 15.877 13.738 18.112C12.5804 19.3723 11.3098 20.5237 9.942 21.552C9.82805 21.6371 9.71305 21.7208 9.597 21.803L9.576 21.817L9.57 21.822L9.568 21.823L9 22.215ZM9 7.001C8.46957 7.001 7.96086 7.21171 7.58579 7.58679C7.21071 7.96186 7 8.47057 7 9.001C7 9.53143 7.21071 10.0401 7.58579 10.4152C7.96086 10.7903 8.46957 11.001 9 11.001C9.53043 11.001 10.0391 10.7903 10.4142 10.4152C10.7893 10.0401 11 9.53143 11 9.001C11 8.47057 10.7893 7.96186 10.4142 7.58679C10.0391 7.21171 9.53043 7.001 9 7.001ZM5 9.001C5 7.94013 5.42143 6.92272 6.17157 6.17257C6.92172 5.42243 7.93913 5.001 9 5.001C10.0609 5.001 11.0783 5.42243 11.8284 6.17257C12.5786 6.92272 13 7.94013 13 9.001C13 10.0619 12.5786 11.0793 11.8284 11.8294C11.0783 12.5796 10.0609 13.001 9 13.001C7.93913 13.001 6.92172 12.5796 6.17157 11.8294C5.42143 11.0793 5 10.0619 5 9.001Z" fill="black" fill-opacity="0.5"/>
</svg>
