<svg width="17" height="18" viewBox="0 0 17 18" fill="none" xmlns="http://www.w3.org/2000/svg">
<path d="M4.08984 8.18262H5.72621V9.81898H4.08984V8.18262ZM4.08984 11.4553H5.72621V13.0917H4.08984V11.4553ZM7.36257 8.18262H8.99894V9.81898H7.36257V8.18262ZM7.36257 11.4553H8.99894V13.0917H7.36257V11.4553ZM10.6353 8.18262H12.2717V9.81898H10.6353V8.18262ZM10.6353 11.4553H12.2717V13.0917H10.6353V11.4553Z" fill="black"/>
<path d="M1.8 18H14.4C15.3927 18 16.2 17.1927 16.2 16.2V3.6C16.2 2.6073 15.3927 1.8 14.4 1.8H12.6V0H10.8V1.8H5.4V0H3.6V1.8H1.8C0.8073 1.8 0 2.6073 0 3.6V16.2C0 17.1927 0.8073 18 1.8 18ZM14.4 5.4L14.4009 16.2H1.8V5.4H14.4Z" fill="black"/>
</svg>
