<svg width="19" height="19" viewBox="0 0 19 19" fill="none" xmlns="http://www.w3.org/2000/svg">
<path d="M7.28721 1.21281C7.43957 0.863127 7.70092 0.563666 8.03776 0.352806C8.37459 0.141946 8.77157 0.0292969 9.1778 0.0292969C9.58404 0.0292969 9.98101 0.141946 10.3179 0.352806C10.6547 0.563666 10.916 0.863127 11.0684 1.21281C12.5763 1.59789 13.9065 2.43199 14.8545 3.587C15.8024 4.74201 16.3159 6.15406 16.316 7.60628V12.0539L18.1841 14.656C18.2866 14.7986 18.3455 14.9643 18.3544 15.1355C18.3634 15.3068 18.3221 15.477 18.235 15.6282C18.1479 15.7794 18.0183 15.9057 17.8599 15.9938C17.7015 16.0819 17.5203 16.1284 17.3357 16.1284H12.7112C12.5884 16.9172 12.1637 17.6386 11.5147 18.1604C10.8658 18.6821 10.0362 18.9693 9.1778 18.9693C8.31943 18.9693 7.48979 18.6821 6.84087 18.1604C6.19194 17.6386 5.76719 16.9172 5.64441 16.1284H1.01989C0.835275 16.1284 0.654114 16.0819 0.495737 15.9938C0.337359 15.9057 0.207706 15.7794 0.12061 15.6282C0.0335147 15.477 -0.00775588 15.3068 0.0012011 15.1355C0.0101581 14.9643 0.0690067 14.7986 0.171469 14.656L2.03963 12.0539V7.60628C2.03963 4.55347 4.26266 1.98169 7.28721 1.21281ZM7.73589 16.1284C7.84121 16.4055 8.0365 16.6454 8.29484 16.8152C8.55318 16.9849 8.86185 17.076 9.17831 17.076C9.49478 17.076 9.80345 16.9849 10.0618 16.8152C10.3201 16.6454 10.5154 16.4055 10.6207 16.1284H7.73589ZM9.1778 2.87178C7.82555 2.87178 6.52867 3.37059 5.57248 4.25848C4.61629 5.14637 4.07911 6.35061 4.07911 7.60628V12.3408C4.07915 12.5278 4.01954 12.7107 3.90779 12.8663L2.92578 14.2346H15.4288L14.4468 12.8663C14.3354 12.7106 14.2762 12.5277 14.2765 12.3408V7.60628C14.2765 6.35061 13.7393 5.14637 12.7831 4.25848C11.8269 3.37059 10.5301 2.87178 9.1778 2.87178Z" fill="black"/>
</svg>
