<svg width="27" height="25" viewBox="0 0 27 25" fill="none" xmlns="http://www.w3.org/2000/svg">
<path d="M8.33906 12.5C6.82031 12.5465 5.57812 13.1417 4.6125 14.2857H2.72812C1.95937 14.2857 1.3125 14.0974 0.7875 13.7207C0.2625 13.344 0 12.793 0 12.0675C0 8.78441 0.58125 7.14286 1.74375 7.14286C1.8 7.14286 2.00391 7.24051 2.35547 7.43583C2.70703 7.63114 3.16406 7.82878 3.72656 8.02874C4.28906 8.2287 4.84687 8.32868 5.4 8.32868C6.02812 8.32868 6.65156 8.22173 7.27031 8.00781C7.22344 8.35193 7.2 8.65885 7.2 8.92857C7.2 10.2214 7.57969 11.4118 8.33906 12.5ZM23.4 21.3867C23.4 22.5028 23.0578 23.384 22.3734 24.0304C21.6891 24.6768 20.7797 25 19.6453 25H7.35469C6.22031 25 5.31094 24.6768 4.62656 24.0304C3.94219 23.384 3.6 22.5028 3.6 21.3867C3.6 20.8938 3.61641 20.4125 3.64922 19.9428C3.68203 19.4731 3.74766 18.9662 3.84609 18.4222C3.94453 17.8781 4.06875 17.3735 4.21875 16.9085C4.36875 16.4435 4.57031 15.99 4.82344 15.5483C5.07656 15.1065 5.36719 14.7298 5.69531 14.4182C6.02344 14.1067 6.42422 13.8579 6.89766 13.6719C7.37109 13.4859 7.89375 13.3929 8.46562 13.3929C8.55937 13.3929 8.76094 13.4928 9.07031 13.6928C9.37969 13.8928 9.72188 14.116 10.0969 14.3624C10.4719 14.6089 10.9734 14.8321 11.6016 15.0321C12.2297 15.2321 12.8625 15.332 13.5 15.332C14.1375 15.332 14.7703 15.2321 15.3984 15.0321C16.0266 14.8321 16.5281 14.6089 16.9031 14.3624C17.2781 14.116 17.6203 13.8928 17.9297 13.6928C18.2391 13.4928 18.4406 13.3929 18.5344 13.3929C19.1062 13.3929 19.6289 13.4859 20.1023 13.6719C20.5758 13.8579 20.9766 14.1067 21.3047 14.4182C21.6328 14.7298 21.9234 15.1065 22.1766 15.5483C22.4297 15.99 22.6312 16.4435 22.7812 16.9085C22.9313 17.3735 23.0555 17.8781 23.1539 18.4222C23.2523 18.9662 23.318 19.4731 23.3508 19.9428C23.3836 20.4125 23.4 20.8938 23.4 21.3867ZM9 3.57143C9 4.55729 8.64844 5.399 7.94531 6.09654C7.24219 6.79408 6.39375 7.14286 5.4 7.14286C4.40625 7.14286 3.55781 6.79408 2.85469 6.09654C2.15156 5.399 1.8 4.55729 1.8 3.57143C1.8 2.58557 2.15156 1.74386 2.85469 1.04632C3.55781 0.348772 4.40625 0 5.4 0C6.39375 0 7.24219 0.348772 7.94531 1.04632C8.64844 1.74386 9 2.58557 9 3.57143ZM18.9 8.92857C18.9 10.4074 18.3727 11.6699 17.318 12.7162C16.2633 13.7626 14.9906 14.2857 13.5 14.2857C12.0094 14.2857 10.7367 13.7626 9.68203 12.7162C8.62734 11.6699 8.1 10.4074 8.1 8.92857C8.1 7.44978 8.62734 6.18722 9.68203 5.1409C10.7367 4.09459 12.0094 3.57143 13.5 3.57143C14.9906 3.57143 16.2633 4.09459 17.318 5.1409C18.3727 6.18722 18.9 7.44978 18.9 8.92857ZM27 12.0675C27 12.793 26.7375 13.344 26.2125 13.7207C25.6875 14.0974 25.0406 14.2857 24.2719 14.2857H22.3875C21.4219 13.1417 20.1797 12.5465 18.6609 12.5C19.4203 11.4118 19.8 10.2214 19.8 8.92857C19.8 8.65885 19.7766 8.35193 19.7297 8.00781C20.3484 8.22173 20.9719 8.32868 21.6 8.32868C22.1531 8.32868 22.7109 8.2287 23.2734 8.02874C23.8359 7.82878 24.293 7.63114 24.6445 7.43583C24.9961 7.24051 25.2 7.14286 25.2562 7.14286C26.4187 7.14286 27 8.78441 27 12.0675ZM25.2 3.57143C25.2 4.55729 24.8484 5.399 24.1453 6.09654C23.4422 6.79408 22.5937 7.14286 21.6 7.14286C20.6062 7.14286 19.7578 6.79408 19.0547 6.09654C18.3516 5.399 18 4.55729 18 3.57143C18 2.58557 18.3516 1.74386 19.0547 1.04632C19.7578 0.348772 20.6062 0 21.6 0C22.5937 0 23.4422 0.348772 24.1453 1.04632C24.8484 1.74386 25.2 2.58557 25.2 3.57143Z" fill="#200080"/>
</svg>
