<svg width="24" height="24" viewBox="0 0 24 24" fill="none" xmlns="http://www.w3.org/2000/svg">
<path d="M8 12C11.309 12 14 9.309 14 6C14 2.691 11.309 0 8 0C4.691 0 2 2.691 2 6C2 9.309 4.691 12 8 12ZM8 2C10.206 2 12 3.794 12 6C12 8.206 10.206 10 8 10C5.794 10 4 8.206 4 6C4 3.794 5.794 2 8 2ZM10 15C10 15.552 9.552 16 9 16C5.14 16 2 19.14 2 23C2 23.552 1.552 24 1 24C0.448 24 0 23.552 0 23C0 18.038 4.038 14 9 14C9.552 14 10 14.448 10 15ZM23.644 17.752L21.278 19.679L22.257 22.659C22.391 23.062 22.255 23.506 21.918 23.765C21.581 24.024 21.117 24.042 20.762 23.811L18.008 22.018L15.3 23.83C15.132 23.943 14.938 23.999 14.744 23.999C14.533 23.999 14.322 23.932 14.144 23.799C13.804 23.545 13.663 23.103 13.79 22.698L14.731 19.682L12.354 17.748C12.034 17.477 11.917 17.035 12.062 16.641C12.207 16.247 12.581 15.986 13 15.986H16.001L17.063 13.006C17.209 12.615 17.583 12.355 18 12.355C18.417 12.355 18.792 12.615 18.937 13.006L19.999 15.986H23C23.42 15.986 23.795 16.249 23.939 16.643C24.083 17.037 23.965 17.48 23.644 17.751V17.752Z" fill="#200080"/>
</svg>
