<svg width="24" height="24" viewBox="0 0 24 24" fill="none" xmlns="http://www.w3.org/2000/svg">
<path d="M24 0H14.8906L12.0015 5.826L9.12138 0H0L4.76112 9.63C3.63973 11.13 2.97532 12.989 2.97532 15C2.97532 19.962 7.02192 24 11.9945 24C16.9671 24 21.0137 19.962 21.0137 15C21.0137 12.988 20.3482 11.129 19.2269 9.629L24 0ZM16.1353 2H20.7721L17.7557 8.082C16.6935 7.199 15.4258 6.555 14.0358 6.233L16.1353 2ZM7.87473 2L9.96518 6.23C8.56921 6.551 7.2965 7.197 6.23024 8.083L3.22385 2H7.87473ZM11.9935 22C8.12527 22 4.97858 18.86 4.97858 15C4.97858 11.14 8.12527 8 11.9935 8C15.8617 8 19.0084 11.14 19.0084 15C19.0084 18.86 15.8617 22 11.9935 22ZM13.4145 13.5H17.0041V14.242L14.2543 15.872L15.4107 19.007L14.7744 19.45L12.0065 17.314L9.22761 19.459L8.61531 18.999L9.69159 15.824L6.98384 14.246V13.499H10.5935L11.5926 9.971H12.4164L13.4145 13.499V13.5Z" fill="#200080"/>
</svg>
