<svg width="45" height="39" viewBox="0 0 45 39" fill="none" xmlns="http://www.w3.org/2000/svg">
<g clip-path="url(#clip0_7859_7833)">
<path opacity="0.39" d="M25.0984 24.8H4.59843C3.99843 24.8 3.39844 24.3 3.39844 23.6V23.2C3.39844 22.6 3.89843 22 4.59843 22H25.0984C25.6984 22 26.2984 22.5 26.2984 23.2V23.6C26.2984 24.3 25.6984 24.8 25.0984 24.8Z" fill="#999999"/>
<path d="M7.19638 12.1992C7.19638 12.9992 7.29638 13.8992 7.69638 14.6992C7.89638 15.1992 7.99638 15.7992 7.89638 16.2992C7.69638 17.1992 7.09638 17.8992 6.19638 18.4992C5.79638 18.6992 5.39638 18.9992 5.09638 19.1992L4.49638 19.5992C4.43237 19.6414 4.37826 19.6969 4.33778 19.762C4.2973 19.827 4.27141 19.9001 4.2619 19.9762C4.2524 20.0522 4.2595 20.1294 4.28272 20.2024C4.30593 20.2755 4.34471 20.3426 4.39638 20.3992L5.89638 21.8992C5.95298 21.9509 6.02011 21.9897 6.09315 22.0129C6.16619 22.0361 6.24339 22.0432 6.31944 22.0337C6.39548 22.0242 6.46857 21.9983 6.53364 21.9578C6.59872 21.9173 6.65423 21.8632 6.69638 21.7992L7.19638 21.1992L7.89638 20.1992C8.49638 19.1992 9.09638 18.6992 9.99638 18.3992C10.4964 18.2992 11.0964 18.2992 11.5964 18.5992C12.3964 18.8992 13.1964 19.0992 13.8964 18.9992C13.9964 18.9992 13.9964 18.8992 13.8964 18.8992L7.19638 12.1992Z" fill="#AB8787" stroke="black" stroke-width="0.5" stroke-miterlimit="10" stroke-linecap="round" stroke-linejoin="round"/>
<path d="M19.0031 7.30144C17.0031 5.30144 13.8031 5.20144 11.2031 6.70144C9.80312 7.40144 8.50312 8.70144 7.70312 10.4014C7.40312 11.0014 7.30313 11.6014 7.20312 12.2014C7.20312 12.2014 7.30313 12.1014 7.30313 12.2014L14.0031 18.9014V19.0014C15.4031 18.9014 16.8031 18.2014 18.2031 16.9014C21.0031 14.2014 21.4031 9.70144 19.0031 7.30144Z" fill="#00C4EF" stroke="black" stroke-width="0.5" stroke-miterlimit="10" stroke-linecap="round" stroke-linejoin="round"/>
<path d="M12.0026 12.9008C12.0026 13.7008 12.1026 14.6008 12.5026 15.4008C12.7026 15.9008 12.8026 16.5008 12.7026 17.0008C12.5026 17.9008 11.9026 18.6008 11.0026 19.2008C10.6026 19.4008 10.2026 19.7008 9.90263 19.9008L9.40263 20.2008C9.33862 20.2429 9.28451 20.2984 9.24403 20.3635C9.20355 20.4286 9.17766 20.5017 9.16815 20.5777C9.15865 20.6538 9.16575 20.731 9.18897 20.804C9.21218 20.877 9.25096 20.9442 9.30263 21.0008L10.8026 22.5008C10.8592 22.5525 10.9264 22.5912 10.9994 22.6144C11.0724 22.6377 11.1496 22.6448 11.2257 22.6353C11.3017 22.6257 11.3748 22.5999 11.4399 22.5594C11.505 22.5189 11.5605 22.4648 11.6026 22.4008L12.1026 21.8008L12.8026 20.8008C13.4026 19.8008 14.0026 19.3008 14.9026 19.0008C15.4026 18.9008 16.0026 18.9008 16.5026 19.2008C17.3026 19.5008 18.1026 19.7008 18.8026 19.6008C18.9026 19.6008 18.9026 19.5008 18.8026 19.5008L12.1026 12.8008C12.0026 12.8008 12.0026 12.9008 12.0026 12.9008Z" fill="#AB8787" stroke="black" stroke-width="0.5" stroke-miterlimit="10" stroke-linecap="round" stroke-linejoin="round"/>
<path d="M23.6984 8.00066C21.6984 6.00066 18.4984 5.90066 15.8984 7.40066C14.4984 8.10066 13.1984 9.40066 12.3984 11.1007C12.0984 11.7007 11.9984 12.3007 11.8984 12.9007C11.8984 12.9007 11.9984 12.8007 11.9984 12.9007L18.6984 19.6007V19.7007C20.0984 19.6007 21.4984 18.9007 22.8984 17.6007C25.6984 14.9007 26.1984 10.4007 23.6984 8.00066Z" fill="#FE6264" stroke="black" stroke-width="0.5" stroke-miterlimit="10" stroke-linecap="round" stroke-linejoin="round"/>
<path d="M20.6016 22.3984C21.9823 22.3984 23.1016 21.2791 23.1016 19.8984C23.1016 18.5177 21.9823 17.3984 20.6016 17.3984C19.2209 17.3984 18.1016 18.5177 18.1016 19.8984C18.1016 21.2791 19.2209 22.3984 20.6016 22.3984Z" fill="#DDDDDD" stroke="black" stroke-width="0.5" stroke-miterlimit="10" stroke-linecap="round" stroke-linejoin="round"/>
<path d="M20.6016 18.3984C21.5016 18.3984 22.3016 19.1984 22.2016 20.1984" stroke="black" stroke-width="0.5" stroke-miterlimit="10" stroke-linecap="round" stroke-linejoin="round"/>
</g>
<defs>
<clipPath id="clip0_7859_7833">
<rect width="45" height="39" fill="white"/>
</clipPath>
</defs>
</svg>
