<svg width="12" height="16" viewBox="0 0 12 16" fill="none" xmlns="http://www.w3.org/2000/svg">
<path fill-rule="evenodd" clip-rule="evenodd" d="M1.5 14.5V1.5H10.5V14.5H9V11C9 10.7348 8.89464 10.4804 8.70711 10.2929C8.51957 10.1054 8.26522 10 8 10H4C3.73478 10 3.48043 10.1054 3.29289 10.2929C3.10536 10.4804 3 10.7348 3 11V14.5H1.5ZM4.5 14.5H7.5V11.5H4.5V14.5ZM0 1C0 0.734784 0.105357 0.48043 0.292893 0.292893C0.48043 0.105357 0.734784 0 1 0L11 0C11.2652 0 11.5196 0.105357 11.7071 0.292893C11.8946 0.48043 12 0.734784 12 1V15C12 15.2652 11.8946 15.5196 11.7071 15.7071C11.5196 15.8946 11.2652 16 11 16H1C0.734784 16 0.48043 15.8946 0.292893 15.7071C0.105357 15.5196 0 15.2652 0 15V1ZM3 3.75C3 3.55109 3.07902 3.36032 3.21967 3.21967C3.36032 3.07902 3.55109 3 3.75 3H4.75C4.94891 3 5.13968 3.07902 5.28033 3.21967C5.42098 3.36032 5.5 3.55109 5.5 3.75C5.5 3.94891 5.42098 4.13968 5.28033 4.28033C5.13968 4.42098 4.94891 4.5 4.75 4.5H3.75C3.55109 4.5 3.36032 4.42098 3.21967 4.28033C3.07902 4.13968 3 3.94891 3 3.75ZM7.25 3C7.05109 3 6.86032 3.07902 6.71967 3.21967C6.57902 3.36032 6.5 3.55109 6.5 3.75C6.5 3.94891 6.57902 4.13968 6.71967 4.28033C6.86032 4.42098 7.05109 4.5 7.25 4.5H8.25C8.44891 4.5 8.63968 4.42098 8.78033 4.28033C8.92098 4.13968 9 3.94891 9 3.75C9 3.55109 8.92098 3.36032 8.78033 3.21967C8.63968 3.07902 8.44891 3 8.25 3H7.25ZM3 7.25C3 7.05109 3.07902 6.86032 3.21967 6.71967C3.36032 6.57902 3.55109 6.5 3.75 6.5H4.75C4.94891 6.5 5.13968 6.57902 5.28033 6.71967C5.42098 6.86032 5.5 7.05109 5.5 7.25C5.5 7.44891 5.42098 7.63968 5.28033 7.78033C5.13968 7.92098 4.94891 8 4.75 8H3.75C3.55109 8 3.36032 7.92098 3.21967 7.78033C3.07902 7.63968 3 7.44891 3 7.25ZM7.25 6.5C7.05109 6.5 6.86032 6.57902 6.71967 6.71967C6.57902 6.86032 6.5 7.05109 6.5 7.25C6.5 7.44891 6.57902 7.63968 6.71967 7.78033C6.86032 7.92098 7.05109 8 7.25 8H8.25C8.44891 8 8.63968 7.92098 8.78033 7.78033C8.92098 7.63968 9 7.44891 9 7.25C9 7.05109 8.92098 6.86032 8.78033 6.71967C8.63968 6.57902 8.44891 6.5 8.25 6.5H7.25Z" fill="#7962BD"/>
</svg>
