<svg width="92" height="60" viewBox="0 0 92 60" fill="none" xmlns="http://www.w3.org/2000/svg">
<path d="M49.8438 8.34375C49.8438 8.40625 49.8438 8.4375 49.8438 8.4375V8.25C49.8438 8.25 49.8438 8.26562 49.8438 8.29688C49.8438 8.32812 49.8438 8.34375 49.8438 8.34375ZM49.8438 8.25V8.34375C49.8438 8.34375 49.8438 8.32812 49.8438 8.29688C49.8438 8.26562 49.8438 8.25 49.8438 8.25ZM49.8438 8.25V8.4375C49.8438 8.4375 49.8438 8.40625 49.8438 8.34375C49.8438 8.34375 49.8438 8.32812 49.8438 8.29688C49.8438 8.26562 49.8438 8.25 49.8438 8.25ZM58.4688 22.5938C58.4062 22.5938 58.3594 22.5938 58.3281 22.5938C58.2969 22.5938 58.25 22.5938 58.1875 22.5938V22.5L58.4688 22.5938ZM58.4688 22.5938V22.875C58.4062 22.8125 58.3594 22.75 58.3281 22.6875C58.2969 22.625 58.25 22.5938 58.1875 22.5938V22.5L58.4688 22.5938ZM84.7188 0.9375H56.4062C54.8438 0.9375 53.4688 1.4375 52.2812 2.4375C51.0938 3.4375 50.3438 4.65625 50.0312 6.09375H9.71875C7.21875 6.09375 5.10938 6.96875 3.39062 8.71875C1.67187 10.4688 0.8125 12.5625 0.8125 15V40.4062C0.8125 42.8438 1.67187 44.9375 3.39062 46.6875C5.10938 48.4375 7.21875 49.3125 9.71875 49.3125H31.75L46.0938 58.875C46.2812 59 46.4844 59.0625 46.7031 59.0625C46.9219 59.0625 47.125 59.0313 47.3125 58.9688C47.5 58.8438 47.6406 58.6875 47.7344 58.5C47.8281 58.3125 47.875 58.125 47.875 57.9375V49.3125H50.6875C53.125 49.3125 55.2188 48.4375 56.9688 46.6875C58.7188 44.9375 59.5938 42.8438 59.5938 40.4062V38.0625C59.5938 38.0625 59.6094 38.0625 59.6406 38.0625C59.6719 38.0625 59.6875 38.0625 59.6875 38.0625L69.5312 31.5H84.7188C86.5312 31.5 88.0625 30.8594 89.3125 29.5781C90.5625 28.2969 91.1875 26.75 91.1875 24.9375V7.40625C91.1875 5.65625 90.5625 4.14062 89.3125 2.85938C88.0625 1.57812 86.5312 0.9375 84.7188 0.9375ZM3.0625 15C3.0625 14.125 3.23438 13.2812 3.57812 12.4688C3.92188 11.6562 4.375 10.9375 4.9375 10.3125C5.5625 9.6875 6.28125 9.20312 7.09375 8.85938C7.90625 8.51562 8.78125 8.34375 9.71875 8.34375H49.8438C49.8438 8.34375 49.8438 8.32812 49.8438 8.29688C49.8438 8.26562 49.8438 8.25 49.8438 8.25V15.4688C49.3438 15.5312 48.875 15.6719 48.4375 15.8906C48 16.1094 47.625 16.375 47.3125 16.6875C46.6875 17.1875 46.1875 17.75 45.8125 18.375C45.4375 19 45.0625 19.5312 44.6875 19.9688C44.5625 20.2188 44.4062 20.4219 44.2188 20.5781C44.0312 20.7344 43.875 20.875 43.75 21C43.6875 21 43.6562 21.0156 43.6562 21.0469C43.6562 21.0781 43.6562 21.0938 43.6562 21.0938C43.4688 21.2188 43.2656 21.3125 43.0469 21.375C42.8281 21.4375 42.5938 21.4688 42.3438 21.4688C41.9688 21.4688 41.6562 21.4062 41.4062 21.2812C41.1562 21.1562 40.9062 21 40.6562 20.8125C40.6562 20.8125 40.6406 20.7969 40.6094 20.7656C40.5781 20.7344 40.5625 20.6875 40.5625 20.625C40.25 20.3125 39.9219 19.9062 39.5781 19.4062C39.2344 18.9062 38.8438 18.375 38.4062 17.8125C38.2188 17.5 37.9844 17.2031 37.7031 16.9219C37.4219 16.6406 37.125 16.4062 36.8125 16.2188C36.4375 15.9688 36.0469 15.7812 35.6406 15.6562C35.2344 15.5312 34.7812 15.4688 34.2812 15.4688C33.6562 15.4688 33.0625 15.5781 32.5 15.7969C31.9375 16.0156 31.4688 16.3125 31.0938 16.6875C30.6562 17.125 30.2656 17.5781 29.9219 18.0469C29.5781 18.5156 29.25 18.9688 28.9375 19.4062C28.875 19.5312 28.8125 19.6406 28.75 19.7344C28.6875 19.8281 28.625 19.9062 28.5625 19.9688C28.375 20.2188 28.1875 20.4375 28 20.625C27.8125 20.8125 27.625 20.9688 27.4375 21.0938C27.3125 21.2188 27.1406 21.3125 26.9219 21.375C26.7031 21.4375 26.4688 21.4688 26.2188 21.4688C25.8438 21.4688 25.5312 21.4062 25.2812 21.2812C25.0312 21.1562 24.7812 21 24.5312 20.8125C24.2812 20.5625 24.0312 20.2656 23.7812 19.9219C23.5312 19.5781 23.2812 19.2188 23.0312 18.8438C22.9062 18.6562 22.7812 18.4844 22.6562 18.3281C22.5312 18.1719 22.4062 18 22.2812 17.8125C22.0312 17.5 21.7812 17.2031 21.5312 16.9219C21.2812 16.6406 20.9688 16.4062 20.5938 16.2188C20.2812 15.9688 19.9062 15.7812 19.4688 15.6562C19.0312 15.5312 18.5938 15.4688 18.1562 15.4688C17.4688 15.4688 16.8594 15.5781 16.3281 15.7969C15.7969 16.0156 15.3438 16.3125 14.9688 16.6875C14.7812 16.875 14.5938 17.0625 14.4062 17.25C14.2188 17.4375 14.0625 17.625 13.9375 17.8125C13.625 18.25 13.3594 18.6406 13.1406 18.9844C12.9219 19.3281 12.6875 19.6562 12.4375 19.9688C12.25 20.2188 12.0625 20.4375 11.875 20.625C11.6875 20.8125 11.5 20.9688 11.3125 21.0938C11.125 21.2188 10.9375 21.3125 10.75 21.375C10.5625 21.4375 10.3125 21.4688 10 21.4688C9.6875 21.4688 9.40625 21.4062 9.15625 21.2812C8.90625 21.1562 8.65625 21 8.40625 20.8125C8.03125 20.5 7.67188 20.0625 7.32812 19.5C6.98438 18.9375 6.59375 18.375 6.15625 17.8125C6.03125 17.625 5.90625 17.4688 5.78125 17.3438C5.65625 17.2188 5.53125 17.0938 5.40625 16.9688C5.28125 16.7812 5.14062 16.625 4.98438 16.5C4.82812 16.375 4.65625 16.2812 4.46875 16.2188C4.28125 16.0312 4.0625 15.8906 3.8125 15.7969C3.5625 15.7031 3.3125 15.625 3.0625 15.5625V15ZM57.3438 40.4062C57.3438 41.3438 57.1719 42.2188 56.8281 43.0312C56.4844 43.8438 56 44.5312 55.375 45.0938C54.75 45.7188 54.0469 46.2031 53.2656 46.5469C52.4844 46.8906 51.625 47.0625 50.6875 47.0625H46.75C46.625 47.0625 46.4844 47.0938 46.3281 47.1562C46.1719 47.2188 46.0625 47.3125 46 47.4375C45.875 47.5 45.7812 47.6094 45.7188 47.7656C45.6562 47.9219 45.625 48.0625 45.625 48.1875V55.875L32.7812 47.25C32.6562 47.1875 32.5469 47.1406 32.4531 47.1094C32.3594 47.0781 32.25 47.0625 32.125 47.0625H9.71875C8.78125 47.0625 7.90625 46.8906 7.09375 46.5469C6.28125 46.2031 5.5625 45.7188 4.9375 45.0938C4.375 44.5312 3.92188 43.8438 3.57812 43.0312C3.23438 42.2188 3.0625 41.3438 3.0625 40.4062V17.9062C3.125 17.9688 3.20312 18.0312 3.29688 18.0938C3.39062 18.1562 3.5 18.25 3.625 18.375C4 18.6875 4.35938 19.1094 4.70312 19.6406C5.04688 20.1719 5.4375 20.75 5.875 21.375C6.125 21.625 6.375 21.8906 6.625 22.1719C6.875 22.4531 7.1875 22.7188 7.5625 22.9688C7.875 23.2188 8.25 23.4062 8.6875 23.5312C9.125 23.6562 9.5625 23.7188 10 23.7188C10.6875 23.7188 11.2969 23.5938 11.8281 23.3438C12.3594 23.0938 12.8125 22.8125 13.1875 22.5C13.75 21.9375 14.2188 21.3594 14.5938 20.7656C14.9688 20.1719 15.3438 19.625 15.7188 19.125C15.9062 18.9375 16.0781 18.75 16.2344 18.5625C16.3906 18.375 16.5625 18.25 16.75 18.1875C16.75 18.125 16.7656 18.0938 16.7969 18.0938C16.8281 18.0938 16.8438 18.0938 16.8438 18.0938C17.0312 17.9688 17.2188 17.875 17.4062 17.8125C17.5938 17.75 17.8438 17.7188 18.1562 17.7188C18.4688 17.7188 18.75 17.7656 19 17.8594C19.25 17.9531 19.5 18.125 19.75 18.375L19.9375 18.4688C20.25 18.7812 20.5781 19.2031 20.9219 19.7344C21.2656 20.2656 21.625 20.8125 22 21.375C22.25 21.625 22.5156 21.8906 22.7969 22.1719C23.0781 22.4531 23.375 22.7188 23.6875 22.9688C24 23.2188 24.375 23.4062 24.8125 23.5312C25.25 23.6562 25.7188 23.7188 26.2188 23.7188C26.8438 23.7188 27.4219 23.5938 27.9531 23.3438C28.4844 23.0938 28.9375 22.8125 29.3125 22.5C29.8125 22.0625 30.2344 21.5938 30.5781 21.0938C30.9219 20.5938 31.2188 20.125 31.4688 19.6875C31.5312 19.625 31.6094 19.5469 31.7031 19.4531C31.7969 19.3594 31.875 19.25 31.9375 19.125C32.0625 18.875 32.2188 18.6719 32.4062 18.5156C32.5938 18.3594 32.7812 18.2188 32.9688 18.0938C33.1562 17.9688 33.3438 17.875 33.5312 17.8125C33.7188 17.75 33.9688 17.7188 34.2812 17.7188C34.6562 17.7188 34.9688 17.7656 35.2188 17.8594C35.4688 17.9531 35.6875 18.125 35.875 18.375C36.1875 18.5625 36.4688 18.8281 36.7188 19.1719C36.9688 19.5156 37.2188 19.9062 37.4688 20.3438C37.5938 20.5312 37.7188 20.7031 37.8438 20.8594C37.9688 21.0156 38.0938 21.1875 38.2188 21.375C38.4062 21.625 38.6406 21.8906 38.9219 22.1719C39.2031 22.4531 39.5 22.7188 39.8125 22.9688C40.1875 23.2188 40.5781 23.4062 40.9844 23.5312C41.3906 23.6562 41.8438 23.7188 42.3438 23.7188C42.9688 23.7188 43.5469 23.5938 44.0781 23.3438C44.6094 23.0938 45.0938 22.8125 45.5312 22.5C45.7188 22.3125 45.8906 22.1094 46.0469 21.8906C46.2031 21.6719 46.375 21.4688 46.5625 21.2812C46.8125 20.9062 47.0625 20.5312 47.3125 20.1562C47.5625 19.7812 47.8125 19.4375 48.0625 19.125C48.25 18.875 48.4219 18.6719 48.5781 18.5156C48.7344 18.3594 48.9062 18.2188 49.0938 18.0938C49.2188 17.9688 49.3438 17.8906 49.4688 17.8594C49.5938 17.8281 49.7188 17.7812 49.8438 17.7188V24.9375C49.8438 26.75 50.4844 28.2969 51.7656 29.5781C53.0469 30.8594 54.5938 31.5 56.4062 31.5H57.3438V40.4062ZM88.9375 24.9375C88.9375 26.125 88.5312 27.1406 87.7188 27.9844C86.9062 28.8281 85.9062 29.25 84.7188 29.25H69.25C69.125 29.25 69 29.2656 68.875 29.2969C68.75 29.3281 68.6562 29.375 68.5938 29.4375L60.25 34.9688V30.375C60.25 30.1875 60.2188 30.0312 60.1562 29.9062C60.0938 29.7812 60 29.6562 59.875 29.5312C59.875 29.4688 59.8438 29.4219 59.7812 29.3906C59.7188 29.3594 59.6562 29.3438 59.5938 29.3438C59.5312 29.2812 59.4531 29.25 59.3594 29.25C59.2656 29.25 59.1875 29.25 59.125 29.25H56.4062C55.2188 29.25 54.2188 28.8281 53.4062 27.9844C52.5938 27.1406 52.1562 26.125 52.0938 24.9375V10.125C52.2812 10.375 52.4844 10.6719 52.7031 11.0156C52.9219 11.3594 53.1562 11.6875 53.4062 12C53.5312 12.25 53.7031 12.4844 53.9219 12.7031C54.1406 12.9219 54.375 13.125 54.625 13.3125C54.875 13.5 55.1719 13.6562 55.5156 13.7812C55.8594 13.9062 56.2188 13.9688 56.5938 13.9688C56.7188 13.9688 56.8281 13.9531 56.9219 13.9219C57.0156 13.8906 57.125 13.875 57.25 13.875C57.4375 13.8125 57.625 13.75 57.8125 13.6875C58 13.625 58.1562 13.5625 58.2812 13.5C58.4062 13.375 58.5312 13.2656 58.6562 13.1719C58.7812 13.0781 58.9062 13 59.0312 12.9375C59.0312 12.875 59.0625 12.8281 59.125 12.7969C59.1875 12.7656 59.2188 12.7188 59.2188 12.6562C59.5938 12.2812 59.8906 11.8906 60.1094 11.4844C60.3281 11.0781 60.5625 10.7188 60.8125 10.4062C60.9375 10.2188 61.0625 10.0625 61.1875 9.9375C61.3125 9.8125 61.4062 9.71875 61.4688 9.65625C61.5938 9.59375 61.7031 9.54688 61.7969 9.51562C61.8906 9.48438 62 9.46875 62.125 9.46875C62.3125 9.46875 62.4688 9.5 62.5938 9.5625C62.7188 9.625 62.875 9.71875 63.0625 9.84375C63.25 10.0312 63.4688 10.3281 63.7188 10.7344C63.9688 11.1406 64.25 11.5625 64.5625 12C64.6875 12.25 64.8594 12.4844 65.0781 12.7031C65.2969 12.9219 65.5312 13.125 65.7812 13.3125C66.0312 13.5 66.3281 13.6562 66.6719 13.7812C67.0156 13.9062 67.375 13.9688 67.75 13.9688C68.25 13.9688 68.7031 13.8594 69.1094 13.6406C69.5156 13.4219 69.875 13.1875 70.1875 12.9375C70.625 12.5 70.9688 12.0469 71.2188 11.5781C71.4688 11.1094 71.7188 10.7188 71.9688 10.4062C72.0938 10.2188 72.2188 10.0625 72.3438 9.9375C72.4688 9.8125 72.5625 9.71875 72.625 9.65625C72.75 9.59375 72.8594 9.54688 72.9531 9.51562C73.0469 9.48438 73.1562 9.46875 73.2812 9.46875C73.4688 9.46875 73.625 9.5 73.75 9.5625C73.875 9.625 74.0312 9.71875 74.2188 9.84375C74.4062 10.0312 74.625 10.3281 74.875 10.7344C75.125 11.1406 75.4062 11.5625 75.7188 12C75.8438 12.25 76.0156 12.4844 76.2344 12.7031C76.4531 12.9219 76.6875 13.125 76.9375 13.3125C77.1875 13.5 77.4844 13.6562 77.8281 13.7812C78.1719 13.9062 78.5312 13.9688 78.9062 13.9688C79.4062 13.9688 79.8594 13.8594 80.2656 13.6406C80.6719 13.4219 81.0312 13.1875 81.3438 12.9375C81.7812 12.5 82.125 12.0469 82.375 11.5781C82.625 11.1094 82.875 10.7188 83.125 10.4062C83.25 10.2188 83.375 10.0625 83.5 9.9375C83.625 9.8125 83.7188 9.71875 83.7812 9.65625C83.9062 9.59375 84.0156 9.54688 84.1094 9.51562C84.2031 9.48438 84.3125 9.46875 84.4375 9.46875C84.6875 9.46875 84.8594 9.5 84.9531 9.5625C85.0469 9.625 85.1875 9.71875 85.375 9.84375C85.5625 10.0312 85.7812 10.3281 86.0312 10.7344C86.2812 11.1406 86.5625 11.5625 86.875 12C87.0625 12.25 87.25 12.4844 87.4375 12.7031C87.625 12.9219 87.8438 13.125 88.0938 13.3125C88.2188 13.4375 88.3594 13.5312 88.5156 13.5938C88.6719 13.6562 88.8125 13.7188 88.9375 13.7812V24.9375ZM88.9375 11.0625C88.75 10.875 88.5625 10.5938 88.375 10.2188C88.1875 9.84375 87.9375 9.46875 87.625 9.09375C87.5 8.84375 87.3438 8.60938 87.1562 8.39062C86.9688 8.17188 86.7188 7.96875 86.4062 7.78125C86.1562 7.59375 85.8594 7.45312 85.5156 7.35938C85.1719 7.26562 84.8125 7.21875 84.4375 7.21875C83.9375 7.21875 83.4844 7.3125 83.0781 7.5C82.6719 7.6875 82.3125 7.9375 82 8.25C81.5625 8.625 81.2188 9.04688 80.9688 9.51562C80.7188 9.98438 80.4688 10.4062 80.2188 10.7812C80.0938 10.9062 79.9688 11.0312 79.8438 11.1562C79.7188 11.2812 79.625 11.4062 79.5625 11.5312C79.4375 11.5938 79.3281 11.6406 79.2344 11.6719C79.1406 11.7031 79.0312 11.7188 78.9062 11.7188C78.7188 11.7188 78.5625 11.6875 78.4375 11.625C78.3125 11.5625 78.1562 11.4688 77.9688 11.3438C77.7812 11.0938 77.5625 10.7656 77.3125 10.3594C77.0625 9.95312 76.7812 9.53125 76.4688 9.09375C76.3438 8.84375 76.1719 8.60938 75.9531 8.39062C75.7344 8.17188 75.5 7.96875 75.25 7.78125C75 7.59375 74.7031 7.45312 74.3594 7.35938C74.0156 7.26562 73.6562 7.21875 73.2812 7.21875C72.7812 7.21875 72.3281 7.3125 71.9219 7.5C71.5156 7.6875 71.1562 7.9375 70.8438 8.25C70.4062 8.625 70.0625 9.04688 69.8125 9.51562C69.5625 9.98438 69.3125 10.4062 69.0625 10.7812C68.9375 10.9062 68.8125 11.0312 68.6875 11.1562C68.5625 11.2812 68.4688 11.4062 68.4062 11.5312C68.2812 11.5938 68.1719 11.6406 68.0781 11.6719C67.9844 11.7031 67.875 11.7188 67.75 11.7188C67.5625 11.7188 67.4062 11.6875 67.2812 11.625C67.1562 11.5625 67 11.4688 66.8125 11.3438C66.625 11.0938 66.4062 10.7656 66.1562 10.3594C65.9062 9.95312 65.625 9.53125 65.3125 9.09375C65.1875 8.84375 65.0156 8.60938 64.7969 8.39062C64.5781 8.17188 64.3438 7.96875 64.0938 7.78125C63.8438 7.59375 63.5469 7.45312 63.2031 7.35938C62.8594 7.26562 62.5 7.21875 62.125 7.21875C61.625 7.21875 61.1719 7.3125 60.7656 7.5C60.3594 7.6875 60 7.9375 59.6875 8.25C59.375 8.5625 59.0938 8.90625 58.8438 9.28125C58.5938 9.65625 58.375 10 58.1875 10.3125C58.125 10.375 58.0781 10.4531 58.0469 10.5469C58.0156 10.6406 57.9688 10.7188 57.9062 10.7812C57.8438 10.8438 57.7812 10.9219 57.7188 11.0156C57.6562 11.1094 57.5938 11.1875 57.5312 11.25C57.4688 11.3125 57.4062 11.3594 57.3438 11.3906C57.2812 11.4219 57.25 11.4688 57.25 11.5312C57.125 11.5938 57.0156 11.6406 56.9219 11.6719C56.8281 11.7031 56.7188 11.7188 56.5938 11.7188C56.5312 11.7188 56.5 11.7188 56.5 11.7188C56.5 11.7188 56.4688 11.7188 56.4062 11.7188C56.2812 11.6562 56.1719 11.6094 56.0781 11.5781C55.9844 11.5469 55.875 11.4688 55.75 11.3438C55.5625 11.1562 55.3594 10.9062 55.1406 10.5938C54.9219 10.2812 54.7188 9.96875 54.5312 9.65625C54.4688 9.53125 54.4062 9.42188 54.3438 9.32812C54.2812 9.23438 54.2188 9.15625 54.1562 9.09375C54.0312 8.84375 53.8594 8.60938 53.6406 8.39062C53.4219 8.17188 53.1875 7.96875 52.9375 7.78125C52.8125 7.71875 52.6875 7.65625 52.5625 7.59375C52.4375 7.53125 52.2812 7.46875 52.0938 7.40625C52.1562 7.21875 52.2031 7.03125 52.2344 6.84375C52.2656 6.65625 52.2812 6.46875 52.2812 6.28125C52.5312 5.40625 53.0312 4.67188 53.7812 4.07812C54.5312 3.48438 55.4062 3.1875 56.4062 3.1875H84.7188C85.9062 3.1875 86.9062 3.60938 87.7188 4.45312C88.5312 5.29688 88.9375 6.28125 88.9375 7.40625V11.0625ZM18.25 34.5938C18.25 35.4688 17.9375 36.2188 17.3125 36.8438C16.6875 37.4688 15.9688 37.7812 15.1562 37.7812C14.2812 37.7812 13.5312 37.4688 12.9062 36.8438C12.2812 36.2188 11.9688 35.4688 11.9688 34.5938C11.9688 33.7188 12.2812 32.9844 12.9062 32.3906C13.5312 31.7969 14.2812 31.5 15.1562 31.5C15.9688 31.5 16.6875 31.7969 17.3125 32.3906C17.9375 32.9844 18.25 33.7188 18.25 34.5938ZM33.3438 34.5938C33.3438 35.4688 33.0312 36.2188 32.4062 36.8438C31.7812 37.4688 31.0312 37.7812 30.1562 37.7812C29.3438 37.7812 28.625 37.4688 28 36.8438C27.375 36.2188 27.0625 35.4688 27.0625 34.5938C27.0625 33.7188 27.375 32.9844 28 32.3906C28.625 31.7969 29.3438 31.5 30.1562 31.5C31.0312 31.5 31.7812 31.7969 32.4062 32.3906C33.0312 32.9844 33.3438 33.7188 33.3438 34.5938ZM48.4375 34.5938C48.4375 35.4688 48.125 36.2188 47.5 36.8438C46.875 37.4688 46.125 37.7812 45.25 37.7812C44.375 37.7812 43.6406 37.4688 43.0469 36.8438C42.4531 36.2188 42.1562 35.4688 42.1562 34.5938C42.1562 33.7188 42.4531 32.9844 43.0469 32.3906C43.6406 31.7969 44.375 31.5 45.25 31.5C46.125 31.5 46.875 31.7969 47.5 32.3906C48.125 32.9844 48.4375 33.7188 48.4375 34.5938ZM58.1875 22.5V22.5938C58.25 22.5938 58.2969 22.625 58.3281 22.6875C58.3594 22.75 58.4062 22.8125 58.4688 22.875V22.5938L58.1875 22.5ZM62.6875 21C62.6875 21.6875 62.4375 22.2656 61.9375 22.7344C61.4375 23.2031 60.8438 23.4375 60.1562 23.4375C60.0312 23.4375 59.9219 23.4375 59.8281 23.4375C59.7344 23.4375 59.6562 23.4375 59.5938 23.4375C59.5312 23.4375 59.4844 23.4219 59.4531 23.3906C59.4219 23.3594 59.375 23.3438 59.3125 23.3438C59.125 23.2812 58.9688 23.2031 58.8438 23.1094C58.7188 23.0156 58.5938 22.9375 58.4688 22.875V22.5938L58.1875 22.5C58.0625 22.375 57.9531 22.2031 57.8594 21.9844C57.7656 21.7656 57.6875 21.5312 57.625 21.2812C57.625 21.2188 57.625 21.1562 57.625 21.0938C57.625 21.0312 57.625 21 57.625 21C57.625 20.625 57.7031 20.2656 57.8594 19.9219C58.0156 19.5781 58.2188 19.3125 58.4688 19.125C58.5938 18.9375 58.7656 18.7969 58.9844 18.7031C59.2031 18.6094 59.4062 18.5312 59.5938 18.4688C59.6562 18.4688 59.7344 18.4688 59.8281 18.4688C59.9219 18.4688 60.0312 18.4688 60.1562 18.4688C60.8438 18.4688 61.4375 18.7031 61.9375 19.1719C62.4375 19.6406 62.6875 20.25 62.6875 21ZM73.0938 21C73.0938 21.6875 72.8438 22.2656 72.3438 22.7344C71.8438 23.2031 71.25 23.4375 70.5625 23.4375C69.875 23.4375 69.2812 23.2031 68.7812 22.7344C68.2812 22.2656 68.0312 21.6875 68.0312 21C68.0312 20.25 68.2812 19.6406 68.7812 19.1719C69.2812 18.7031 69.875 18.4688 70.5625 18.4688C71.25 18.4688 71.8438 18.7031 72.3438 19.1719C72.8438 19.6406 73.0938 20.25 73.0938 21ZM83.5 21C83.5 21.6875 83.25 22.2656 82.75 22.7344C82.25 23.2031 81.6562 23.4375 80.9688 23.4375C80.2812 23.4375 79.6875 23.2031 79.1875 22.7344C78.6875 22.2656 78.4375 21.6875 78.4375 21C78.4375 20.25 78.6875 19.6406 79.1875 19.1719C79.6875 18.7031 80.2812 18.4688 80.9688 18.4688C81.6562 18.4688 82.25 18.7031 82.75 19.1719C83.25 19.6406 83.5 20.25 83.5 21Z" fill="#1E1E1E"/>
</svg>
