<svg width="66" height="66" viewBox="0 0 66 66" fill="none" xmlns="http://www.w3.org/2000/svg">
<path d="M60.2812 49.0312C60.2812 48.9688 60.25 48.8906 60.1875 48.7969C60.125 48.7031 60.0625 48.625 60 48.5625L44.5312 33.0938L64.125 13.5C64.5 13.125 64.7812 12.7031 64.9688 12.2344C65.1562 11.7656 65.25 11.3125 65.25 10.875C65.25 10.375 65.1562 9.89062 64.9688 9.42188C64.7812 8.95312 64.5 8.53125 64.125 8.15625L57.9375 1.96875C57.5625 1.59375 57.1406 1.3125 56.6719 1.125C56.2031 0.9375 55.7188 0.84375 55.2188 0.84375C54.7812 0.84375 54.3281 0.9375 53.8594 1.125C53.3906 1.3125 52.9688 1.59375 52.5938 1.96875L33 21.5625L13.4062 1.96875C13.0312 1.59375 12.6094 1.3125 12.1406 1.125C11.6719 0.9375 11.2188 0.84375 10.7812 0.84375C10.2812 0.84375 9.79688 0.9375 9.32812 1.125C8.85938 1.3125 8.4375 1.59375 8.0625 1.96875L1.875 8.15625C1.5 8.53125 1.21875 8.95312 1.03125 9.42188C0.84375 9.89062 0.75 10.375 0.75 10.875C0.75 11.3125 0.84375 11.7656 1.03125 12.2344C1.21875 12.7031 1.5 13.125 1.875 13.5L21.4688 33.0938L6 48.5625C5.9375 48.625 5.875 48.7031 5.8125 48.7969C5.75 48.8906 5.71875 48.9688 5.71875 49.0312L0.84375 63.8438C0.78125 64.0938 0.765625 64.3125 0.796875 64.5C0.828125 64.6875 0.9375 64.875 1.125 65.0625C1.25 65.1875 1.42188 65.2812 1.64062 65.3438C1.85938 65.4062 2.0625 65.375 2.25 65.25L17.0625 60.375C17.1875 60.375 17.2812 60.3438 17.3438 60.2812C17.4062 60.2188 17.4688 60.1562 17.5312 60.0938L33 44.625L48.4688 60.0938C48.5312 60.1562 48.5938 60.2188 48.6562 60.2812C48.7188 60.3438 48.8125 60.375 48.9375 60.375L63.75 65.25C64 65.375 64.2188 65.4062 64.4062 65.3438C64.5938 65.2812 64.75 65.1875 64.875 65.0625C65.0625 64.875 65.1719 64.6875 65.2031 64.5C65.2344 64.3125 65.25 64.0938 65.25 63.8438L60.2812 49.0312ZM54.1875 3.5625C54.375 3.375 54.5469 3.25 54.7031 3.1875C54.8594 3.125 55.0312 3.09375 55.2188 3.09375C55.4688 3.09375 55.6719 3.125 55.8281 3.1875C55.9844 3.25 56.1562 3.375 56.3438 3.5625L62.5312 9.75C62.7188 9.9375 62.8438 10.1094 62.9062 10.2656C62.9688 10.4219 63 10.625 63 10.875C63 11.0625 62.9688 11.25 62.9062 11.4375C62.8438 11.625 62.7188 11.7812 62.5312 11.9062L55.875 18.5625L47.5312 10.2188L54.1875 3.5625ZM45.9375 11.8125L54.2812 20.1562L51 23.4375L42.6562 15L45.9375 11.8125ZM41.0625 16.5938L49.5 25.0312L42.9375 31.5L34.5938 23.1562L41.0625 16.5938ZM57.6562 49.4062L56.625 50.3438C56.25 50.0313 55.8125 49.7969 55.3125 49.6406C54.8125 49.4844 54.3125 49.4062 53.8125 49.4062C53.3125 49.4062 52.8438 49.4531 52.4062 49.5469C51.9688 49.6406 51.5312 49.75 51.0938 49.875C50.6562 49.9375 50.25 50.0156 49.875 50.1094C49.5 50.2031 49.1562 50.25 48.8438 50.25C48.5312 50.25 48.25 50.2031 48 50.1094C47.75 50.0156 47.4688 49.8438 47.1562 49.5938C47.0312 49.4688 46.9219 49.3281 46.8281 49.1719C46.7344 49.0156 46.6562 48.875 46.5938 48.75C46.5938 48.625 46.5781 48.4688 46.5469 48.2812C46.5156 48.0938 46.5 47.9062 46.5 47.7188C46.5 47.4688 46.5156 47.1719 46.5469 46.8281C46.5781 46.4844 46.625 46.125 46.6875 45.75C46.75 45.375 46.8125 44.9844 46.875 44.5781C46.9375 44.1719 46.9688 43.75 46.9688 43.3125C46.9688 43 46.9531 42.7031 46.9219 42.4219C46.8906 42.1406 46.8125 41.8438 46.6875 41.5312C46.625 41.2188 46.5 40.9219 46.3125 40.6406C46.125 40.3594 45.875 40.0938 45.5625 39.8438C45.125 39.3437 44.625 39 44.0625 38.8125C43.5 38.625 42.9375 38.5625 42.375 38.625C41.875 38.625 41.4062 38.6562 40.9688 38.7188C40.5312 38.7812 40.0938 38.875 39.6562 39C39.2188 39.125 38.8125 39.2187 38.4375 39.2812C38.0625 39.3438 37.7188 39.375 37.4062 39.375C37.0938 39.375 36.8125 39.3281 36.5625 39.2344C36.3125 39.1406 36.0312 38.9688 35.7188 38.7188C35.5938 38.5937 35.4844 38.4688 35.3906 38.3438C35.2969 38.2187 35.25 38.0938 35.25 37.9688C35.1875 37.7812 35.1406 37.6094 35.1094 37.4531C35.0781 37.2969 35.0625 37.125 35.0625 36.9375C35.0625 36.625 35.0781 36.2969 35.1094 35.9531C35.1406 35.6094 35.1875 35.25 35.25 34.875C35.375 34.5 35.4688 34.1094 35.5312 33.7031C35.5938 33.2969 35.625 32.875 35.625 32.4375C35.625 32.1875 35.5938 31.9062 35.5312 31.5938C35.4688 31.2812 35.375 30.9688 35.25 30.6562C35.1875 30.3438 35.0625 30.0469 34.875 29.7656C34.6875 29.4844 34.4375 29.2188 34.125 28.9688C33.6875 28.5312 33.1875 28.2188 32.625 28.0312C32.0625 27.8438 31.5 27.75 30.9375 27.75C30.4375 27.75 29.9688 27.7969 29.5312 27.8906C29.0938 27.9844 28.6562 28.0938 28.2188 28.2188C27.7812 28.2812 27.375 28.3594 27 28.4531C26.625 28.5469 26.2812 28.5938 25.9688 28.5938C25.6562 28.5938 25.375 28.5469 25.125 28.4531C24.875 28.3594 24.625 28.1875 24.375 27.9375C24.1875 27.8125 24.0469 27.6875 23.9531 27.5625C23.8594 27.4375 23.8125 27.2812 23.8125 27.0938C23.75 26.9688 23.7031 26.8281 23.6719 26.6719C23.6406 26.5156 23.625 26.3125 23.625 26.0625C23.625 25.8125 23.6406 25.5156 23.6719 25.1719C23.7031 24.8281 23.7812 24.4688 23.9062 24.0938C23.9688 23.7188 24.0312 23.3281 24.0938 22.9219C24.1562 22.5156 24.1875 22.0938 24.1875 21.6562C24.1875 21.3438 24.1562 21.0469 24.0938 20.7656C24.0312 20.4844 23.9688 20.1875 23.9062 19.875C23.7812 19.625 23.6562 19.3906 23.5312 19.1719C23.4062 18.9531 23.25 18.7188 23.0625 18.4688L24.9375 16.6875L57.6562 49.4062ZM3.46875 11.9062C3.28125 11.7188 3.15625 11.5469 3.09375 11.3906C3.03125 11.2344 3 11.0625 3 10.875C3 10.6875 3.03125 10.5 3.09375 10.3125C3.15625 10.125 3.28125 9.9375 3.46875 9.75L9.65625 3.5625C9.84375 3.375 10.0156 3.25 10.1719 3.1875C10.3281 3.125 10.5312 3.09375 10.7812 3.09375C10.9688 3.09375 11.1406 3.125 11.2969 3.1875C11.4531 3.25 11.625 3.375 11.8125 3.5625L18.4688 10.2188L10.125 18.5625L3.46875 11.9062ZM11.7188 20.1562L20.0625 11.8125L23.3438 15.0938L15 23.4375L11.7188 20.1562ZM3.65625 62.4375L7.3125 51.4688L14.625 58.7812L3.65625 62.4375ZM16.7812 57.75L8.34375 49.4062L23.0625 34.6875L31.4062 43.0312L16.7812 57.75ZM33.8438 42.2812L23.8125 32.3438L16.5 25.0312L21.4688 20.0625C21.5312 20.1875 21.5938 20.2969 21.6562 20.3906C21.7188 20.4844 21.75 20.5625 21.75 20.625C21.8125 20.75 21.8594 20.9062 21.8906 21.0938C21.9219 21.2812 21.9375 21.4688 21.9375 21.6562C21.9375 21.9688 21.9062 22.2812 21.8438 22.5938C21.7812 22.9062 21.7188 23.25 21.6562 23.625C21.5938 24 21.5312 24.3906 21.4688 24.7969C21.4062 25.2031 21.375 25.625 21.375 26.0625C21.375 26.375 21.3906 26.6875 21.4219 27C21.4531 27.3125 21.5312 27.5938 21.6562 27.8438C21.7812 28.1562 21.9375 28.4531 22.125 28.7344C22.3125 29.0156 22.5312 29.3125 22.7812 29.625C23.2812 30.0625 23.8125 30.375 24.375 30.5625C24.9375 30.75 25.4688 30.8438 25.9688 30.8438C26.4688 30.8438 26.9531 30.7969 27.4219 30.7031C27.8906 30.6094 28.3125 30.5 28.6875 30.375C29.125 30.25 29.5312 30.1562 29.9062 30.0938C30.2812 30.0312 30.625 30 30.9375 30C31.3125 30 31.625 30.0469 31.875 30.1406C32.125 30.2344 32.375 30.4062 32.625 30.6562C32.75 30.7812 32.8594 30.9062 32.9531 31.0312C33.0469 31.1562 33.125 31.3125 33.1875 31.5C33.25 31.625 33.2969 31.7656 33.3281 31.9219C33.3594 32.0781 33.375 32.25 33.375 32.4375C33.375 32.75 33.3438 33.0781 33.2812 33.4219C33.2188 33.7656 33.1562 34.125 33.0938 34.5C33.0312 34.875 32.9688 35.2656 32.9062 35.6719C32.8438 36.0781 32.8125 36.5 32.8125 36.9375C32.8125 37.1875 32.8281 37.4688 32.8594 37.7812C32.8906 38.0937 32.9688 38.4062 33.0938 38.7188C33.2188 39.0312 33.375 39.3281 33.5625 39.6094C33.75 39.8906 33.9688 40.1562 34.2188 40.4062C34.7188 40.8437 35.25 41.1562 35.8125 41.3438C36.375 41.5312 36.9062 41.625 37.4062 41.625C37.9062 41.625 38.3906 41.5781 38.8594 41.4844C39.3281 41.3906 39.75 41.3125 40.125 41.25C40.5625 41.125 40.9688 41.0312 41.3438 40.9688C41.7188 40.9062 42.0625 40.875 42.375 40.875C42.75 40.875 43.0625 40.9062 43.3125 40.9688C43.5625 41.0312 43.8125 41.1875 44.0625 41.4375C44.1875 41.5625 44.2969 41.7031 44.3906 41.8594C44.4844 42.0156 44.5625 42.1562 44.625 42.2812C44.6875 42.4062 44.7188 42.5625 44.7188 42.75C44.7188 42.9375 44.7188 43.125 44.7188 43.3125C44.7812 43.5625 44.7812 43.8594 44.7188 44.2031C44.6562 44.5469 44.5938 44.9062 44.5312 45.2812C44.4688 45.6562 44.4062 46.0469 44.3438 46.4531C44.2812 46.8594 44.25 47.2812 44.25 47.7188C44.25 48.0312 44.2656 48.3438 44.2969 48.6562C44.3281 48.9688 44.4062 49.25 44.5312 49.5C44.6562 49.8125 44.8125 50.1094 45 50.3906C45.1875 50.6719 45.4062 50.9375 45.6562 51.1875C46.1562 51.6875 46.6875 52.0312 47.25 52.2188C47.8125 52.4062 48.3438 52.5 48.8438 52.5C49.3438 52.5 49.8281 52.4531 50.2969 52.3594C50.7656 52.2656 51.1875 52.1563 51.5625 52.0312C52 51.9062 52.4062 51.8125 52.7812 51.75C53.1562 51.6875 53.5 51.6562 53.8125 51.6562C54.0625 51.6562 54.2812 51.6719 54.4688 51.7031C54.6562 51.7344 54.8438 51.8125 55.0312 51.9375L49.2188 57.75L33.8438 42.2812ZM51.375 58.875L58.6875 51.4688L62.3438 62.4375L51.375 58.875Z" fill="#1E1E1E"/>
</svg>
