<svg width="14" height="15" viewBox="0 0 14 15" fill="none" xmlns="http://www.w3.org/2000/svg">
<path d="M7 11.2285C6.48047 11.2285 5.99284 11.1283 5.53711 10.9277C5.08138 10.7272 4.6849 10.4583 4.34766 10.1211C4.01042 9.78385 3.74154 9.38737 3.54102 8.93164C3.34049 8.47591 3.24023 7.98828 3.24023 7.46875C3.24023 6.94922 3.34049 6.46159 3.54102 6.00586C3.74154 5.55013 4.01042 5.15365 4.34766 4.81641C4.6849 4.47917 5.08138 4.21029 5.53711 4.00977C5.99284 3.80925 6.48047 3.70898 7 3.70898C7.51953 3.70898 8.00716 3.80925 8.46289 4.00977C8.91862 4.21029 9.3151 4.47917 9.65234 4.81641C9.98958 5.15365 10.2585 5.55013 10.459 6.00586C10.6595 6.46159 10.7598 6.94922 10.7598 7.46875C10.7598 7.98828 10.6595 8.47591 10.459 8.93164C10.2585 9.38737 9.98958 9.78385 9.65234 10.1211C9.3151 10.4583 8.91862 10.7272 8.46289 10.9277C8.00716 11.1283 7.51953 11.2285 7 11.2285ZM7 4.73438C6.6263 4.73438 6.27083 4.80273 5.93359 4.93945C5.60547 5.08529 5.31608 5.28125 5.06543 5.52734C4.81478 5.77344 4.62109 6.0651 4.48438 6.40234C4.33854 6.73047 4.26562 7.08594 4.26562 7.46875C4.26562 7.85156 4.33398 8.20703 4.4707 8.53516C4.61654 8.86328 4.8125 9.15267 5.05859 9.40332C5.30469 9.65397 5.59635 9.85221 5.93359 9.99805C6.26172 10.1348 6.61719 10.2031 7 10.2031C7.38281 10.2031 7.73828 10.1348 8.06641 9.99805C8.39453 9.85221 8.68392 9.65397 8.93457 9.40332C9.18522 9.15267 9.38346 8.86328 9.5293 8.53516C9.66602 8.20703 9.73438 7.85156 9.73438 7.46875C9.73438 7.08594 9.66602 6.73047 9.5293 6.40234C9.38346 6.0651 9.1875 5.77344 8.94141 5.52734C8.69531 5.28125 8.40365 5.08529 8.06641 4.93945C7.73828 4.80273 7.38281 4.73438 7 4.73438ZM10.2402 14.4688H3.75977C3.24023 14.4688 2.7526 14.3685 2.29688 14.168C1.84115 13.9766 1.44238 13.71 1.10059 13.3682C0.758789 13.0264 0.492188 12.6276 0.300781 12.1719C0.10026 11.7161 0 11.2285 0 10.709V4.22852C0 3.70898 0.10026 3.22135 0.300781 2.76562C0.492188 2.3099 0.758789 1.91113 1.10059 1.56934C1.44238 1.22754 1.84115 0.960938 2.29688 0.769531C2.7526 0.569011 3.24023 0.46875 3.75977 0.46875H10.2402C10.7598 0.46875 11.2474 0.569011 11.7031 0.769531C12.1589 0.960938 12.5576 1.22754 12.8994 1.56934C13.2412 1.91113 13.5078 2.3099 13.6992 2.76562C13.8997 3.22135 14 3.70898 14 4.22852V10.709C14 11.2285 13.8997 11.7161 13.6992 12.1719C13.5078 12.6276 13.2412 13.0264 12.8994 13.3682C12.5576 13.71 12.1589 13.9766 11.7031 14.168C11.2474 14.3685 10.7598 14.4688 10.2402 14.4688ZM3.75977 1.48047C3.37695 1.48047 3.02148 1.55339 2.69336 1.69922C2.35612 1.84505 2.06445 2.04102 1.81836 2.28711C1.57227 2.5332 1.3763 2.82487 1.23047 3.16211C1.08464 3.49023 1.01172 3.8457 1.01172 4.22852V10.709C1.01172 11.0918 1.08464 11.4473 1.23047 11.7754C1.3763 12.1126 1.57227 12.4043 1.81836 12.6504C2.06445 12.8965 2.35612 13.0924 2.69336 13.2383C3.02148 13.3841 3.37695 13.457 3.75977 13.457H10.2402C10.623 13.457 10.9785 13.3841 11.3066 13.2383C11.6439 13.0924 11.9355 12.8965 12.1816 12.6504C12.4277 12.4043 12.6237 12.1126 12.7695 11.7754C12.9154 11.4473 12.9883 11.0918 12.9883 10.709V4.22852C12.9883 3.8457 12.9154 3.49023 12.7695 3.16211C12.6237 2.82487 12.4277 2.5332 12.1816 2.28711C11.9355 2.04102 11.6439 1.84505 11.3066 1.69922C10.9785 1.55339 10.623 1.48047 10.2402 1.48047H3.75977ZM11.0605 4.63867C10.8327 4.63867 10.639 4.55892 10.4795 4.39941C10.32 4.23991 10.2402 4.04622 10.2402 3.81836C10.2402 3.5905 10.32 3.39681 10.4795 3.2373C10.639 3.0778 10.8327 2.99805 11.0605 2.99805V4.63867ZM11.0605 4.63867C11.2884 4.63867 11.4821 4.55892 11.6416 4.39941C11.8011 4.23991 11.8809 4.04622 11.8809 3.81836C11.8809 3.5905 11.8011 3.39681 11.6416 3.2373C11.4821 3.0778 11.2884 2.99805 11.0605 2.99805V4.63867Z" fill="white"/>
</svg>
