<svg width="8" height="15" viewBox="0 0 8 15" fill="none" xmlns="http://www.w3.org/2000/svg">
<path d="M5.04883 14.4688H2.23242C2.08659 14.4688 1.96582 14.4186 1.87012 14.3184C1.77441 14.2181 1.72656 14.0996 1.72656 13.9629V7.70117H0.537109C0.400391 7.70117 0.281901 7.65104 0.181641 7.55078C0.0813802 7.45052 0.03125 7.33203 0.03125 7.19531V4.92578C0.03125 4.78906 0.0813802 4.67057 0.181641 4.57031C0.281901 4.47005 0.400391 4.41992 0.537109 4.41992H1.72656V3.72266C1.72656 3.33073 1.78125 2.9388 1.89062 2.54688C2 2.16406 2.17773 1.81771 2.42383 1.50781C2.66992 1.19792 2.99349 0.951823 3.39453 0.769531C3.79557 0.578125 4.28776 0.482422 4.87109 0.482422H7.31836C7.45508 0.482422 7.57357 0.530273 7.67383 0.625977C7.77409 0.72168 7.82422 0.842448 7.82422 0.988281V3.24414C7.82422 3.31706 7.81055 3.38314 7.7832 3.44238C7.75586 3.50163 7.7194 3.55404 7.67383 3.59961C7.62826 3.64518 7.57357 3.68164 7.50977 3.70898C7.44596 3.73633 7.38216 3.75 7.31836 3.75H5.62305C5.62305 3.75 5.61393 3.76595 5.5957 3.79785C5.57747 3.82975 5.56836 3.85026 5.56836 3.85938V4.41992H7.45508C7.53711 4.41992 7.61003 4.43359 7.67383 4.46094C7.73763 4.48828 7.79232 4.5293 7.83789 4.58398C7.88346 4.63867 7.91764 4.7002 7.94043 4.76855C7.96322 4.83691 7.97461 4.90755 7.97461 4.98047L7.72852 7.23633C7.7194 7.36393 7.66699 7.47103 7.57129 7.55762C7.47559 7.64421 7.35938 7.6875 7.22266 7.6875H5.56836V13.9492C5.56836 14.0951 5.51823 14.2158 5.41797 14.3115C5.31771 14.4072 5.19466 14.4551 5.04883 14.4551V14.4688ZM2.73828 13.4434H4.54297V7.19531C4.54297 7.04948 4.59082 6.92643 4.68652 6.82617C4.78223 6.72591 4.90299 6.67578 5.04883 6.67578H6.75781L6.89453 5.44531H5.04883C4.90299 5.44531 4.78223 5.39518 4.68652 5.29492C4.59082 5.19466 4.54297 5.07617 4.54297 4.93945V3.85938C4.52474 3.75911 4.53385 3.6429 4.57031 3.51074C4.60677 3.37858 4.66602 3.25781 4.74805 3.14844C4.83919 3.02995 4.94401 2.93652 5.0625 2.86816C5.18099 2.7998 5.30859 2.75651 5.44531 2.73828C5.48177 2.73828 5.51595 2.73828 5.54785 2.73828C5.57975 2.73828 5.60938 2.73828 5.63672 2.73828H6.78516C6.78516 2.73828 6.78516 2.5332 6.78516 2.12305C6.78516 1.71289 6.78516 1.50781 6.78516 1.50781H4.85742C3.97331 1.50781 3.39681 1.75163 3.12793 2.23926C2.85905 2.72689 2.72461 3.22591 2.72461 3.73633V4.93945C2.72461 5.07617 2.67448 5.19466 2.57422 5.29492C2.47396 5.39518 2.35547 5.44531 2.21875 5.44531H1.04297V6.67578H2.21875C2.35547 6.67578 2.47396 6.72591 2.57422 6.82617C2.67448 6.92643 2.72461 7.04948 2.72461 7.19531V13.457L2.73828 13.4434Z" fill="white"/>
</svg>
