<svg width="16" height="6" viewBox="0 0 16 6" fill="none" xmlns="http://www.w3.org/2000/svg">
<path d="M0.25 3.56641C0.28125 3.54557 0.315104 3.52734 0.351562 3.51172C0.388021 3.49609 0.432292 3.48828 0.484375 3.48828C0.526042 3.47786 0.567708 3.47005 0.609375 3.46484C0.651042 3.45964 0.692708 3.45703 0.734375 3.45703C0.786458 3.45703 0.833333 3.45964 0.875 3.46484C0.916667 3.47005 0.953125 3.47786 0.984375 3.48828C1.03646 3.4987 1.08073 3.50911 1.11719 3.51953C1.15365 3.52995 1.1875 3.54557 1.21875 3.56641V3.84766C1.21875 3.88932 1.22396 3.93099 1.23438 3.97266C1.24479 4.01432 1.26562 4.05599 1.29688 4.09766C1.31771 4.14974 1.34635 4.19401 1.38281 4.23047C1.41927 4.26693 1.46354 4.30599 1.51562 4.34766C1.55729 4.37891 1.60938 4.41016 1.67188 4.44141C1.73438 4.47266 1.80208 4.4987 1.875 4.51953C1.95833 4.55078 2.04167 4.57161 2.125 4.58203C2.20833 4.59245 2.29688 4.59766 2.39062 4.59766C2.53646 4.59766 2.66146 4.58464 2.76562 4.55859C2.86979 4.53255 2.95833 4.49349 3.03125 4.44141C3.10417 4.38932 3.15625 4.33203 3.1875 4.26953C3.21875 4.20703 3.23438 4.12891 3.23438 4.03516C3.23438 3.89974 3.17708 3.77734 3.0625 3.66797C2.94792 3.55859 2.78125 3.46745 2.5625 3.39453L1.625 3.12891C1.54167 3.10807 1.46094 3.08203 1.38281 3.05078C1.30469 3.01953 1.22396 2.98828 1.14062 2.95703C1.05729 2.91536 0.981771 2.87109 0.914062 2.82422C0.846354 2.77734 0.786458 2.72786 0.734375 2.67578C0.671875 2.61328 0.617188 2.54818 0.570312 2.48047C0.523438 2.41276 0.484375 2.34245 0.453125 2.26953C0.411458 2.1862 0.382812 2.09766 0.367188 2.00391C0.351562 1.91016 0.34375 1.80599 0.34375 1.69141C0.34375 1.55599 0.356771 1.43099 0.382812 1.31641C0.408854 1.20182 0.447917 1.09245 0.5 0.988281C0.552083 0.894531 0.611979 0.80599 0.679688 0.722656C0.747396 0.639323 0.822917 0.566406 0.90625 0.503906C0.989583 0.441406 1.07812 0.386719 1.17188 0.339844C1.26562 0.292969 1.36458 0.248698 1.46875 0.207031C1.57292 0.175781 1.67708 0.154948 1.78125 0.144531C1.88542 0.134115 1.98438 0.128906 2.07812 0.128906C2.23438 0.128906 2.3724 0.139323 2.49219 0.160156C2.61198 0.18099 2.71875 0.21224 2.8125 0.253906C2.91667 0.295573 3.00521 0.345052 3.07812 0.402344C3.15104 0.459635 3.21354 0.52474 3.26562 0.597656V0.316406C3.30729 0.295573 3.34635 0.277344 3.38281 0.261719C3.41927 0.246094 3.45833 0.238281 3.5 0.238281C3.54167 0.227865 3.58333 0.220052 3.625 0.214844C3.66667 0.209635 3.70312 0.207031 3.73438 0.207031C3.77604 0.207031 3.81771 0.209635 3.85938 0.214844C3.90104 0.220052 3.94271 0.227865 3.98438 0.238281C4.03646 0.248698 4.08073 0.259115 4.11719 0.269531C4.15365 0.279948 4.1875 0.295573 4.21875 0.316406V1.95703C4.1875 1.97786 4.15365 1.99609 4.11719 2.01172C4.08073 2.02734 4.03646 2.03516 3.98438 2.03516C3.94271 2.04557 3.90104 2.05339 3.85938 2.05859C3.81771 2.0638 3.77604 2.06641 3.73438 2.06641C3.70312 2.06641 3.66406 2.0638 3.61719 2.05859C3.57031 2.05339 3.52604 2.04557 3.48438 2.03516C3.43229 2.02474 3.38802 2.01432 3.35156 2.00391C3.3151 1.99349 3.28125 1.97786 3.25 1.95703V1.78516C3.25 1.74349 3.24479 1.69922 3.23438 1.65234C3.22396 1.60547 3.20833 1.5612 3.1875 1.51953C3.16667 1.47786 3.14062 1.4362 3.10938 1.39453C3.07812 1.35286 3.04688 1.31641 3.01562 1.28516C2.97396 1.25391 2.92708 1.22526 2.875 1.19922C2.82292 1.17318 2.76562 1.14974 2.70312 1.12891C2.64062 1.09766 2.57031 1.07943 2.49219 1.07422C2.41406 1.06901 2.33333 1.06641 2.25 1.06641C2.17708 1.06641 2.10677 1.07161 2.03906 1.08203C1.97135 1.09245 1.91146 1.10807 1.85938 1.12891C1.80729 1.16016 1.76042 1.1888 1.71875 1.21484C1.67708 1.24089 1.64062 1.27474 1.60938 1.31641C1.57812 1.35807 1.55469 1.39974 1.53906 1.44141C1.52344 1.48307 1.51562 1.53516 1.51562 1.59766C1.51562 1.63932 1.52344 1.68359 1.53906 1.73047C1.55469 1.77734 1.57812 1.82682 1.60938 1.87891C1.64062 1.91016 1.6875 1.94401 1.75 1.98047C1.8125 2.01693 1.89583 2.05078 2 2.08203L2.875 2.33203C2.98958 2.36328 3.09635 2.39714 3.19531 2.43359C3.29427 2.47005 3.39062 2.50911 3.48438 2.55078C3.57812 2.59245 3.66927 2.63932 3.75781 2.69141C3.84635 2.74349 3.92188 2.80078 3.98438 2.86328C4.05729 2.92578 4.1224 2.99609 4.17969 3.07422C4.23698 3.15234 4.28646 3.23307 4.32812 3.31641C4.36979 3.41016 4.40104 3.51172 4.42188 3.62109C4.44271 3.73047 4.45312 3.85286 4.45312 3.98828C4.45312 4.1237 4.4375 4.2513 4.40625 4.37109C4.375 4.49089 4.33333 4.60286 4.28125 4.70703C4.22917 4.80078 4.16406 4.88932 4.08594 4.97266C4.00781 5.05599 3.92708 5.12891 3.84375 5.19141C3.75 5.25391 3.65104 5.30859 3.54688 5.35547C3.44271 5.40234 3.33854 5.44141 3.23438 5.47266C3.11979 5.50391 3.00521 5.52734 2.89062 5.54297C2.77604 5.55859 2.66146 5.56641 2.54688 5.56641C2.40104 5.56641 2.26042 5.55339 2.125 5.52734C1.98958 5.5013 1.85938 5.46745 1.73438 5.42578C1.60938 5.3737 1.5026 5.31641 1.41406 5.25391C1.32552 5.19141 1.25 5.11849 1.1875 5.03516V5.36328C1.14583 5.38411 1.10677 5.40234 1.07031 5.41797C1.03385 5.43359 0.994792 5.44141 0.953125 5.44141C0.901042 5.45182 0.856771 5.45703 0.820312 5.45703C0.783854 5.45703 0.744792 5.45703 0.703125 5.45703C0.661458 5.45703 0.619792 5.45703 0.578125 5.45703C0.536458 5.45703 0.494792 5.45182 0.453125 5.44141C0.421875 5.43099 0.385417 5.42057 0.34375 5.41016C0.302083 5.39974 0.265625 5.38411 0.234375 5.36328V3.56641H0.25ZM5.39062 4.55078L6.84375 0.175781H8.29688L9.70312 4.55078H10.0938C10.1042 4.58203 10.1146 4.61849 10.125 4.66016C10.1354 4.70182 10.1458 4.73828 10.1562 4.76953C10.1562 4.8112 10.1589 4.84766 10.1641 4.87891C10.1693 4.91016 10.1719 4.94661 10.1719 4.98828C10.1719 5.01953 10.1719 5.05339 10.1719 5.08984C10.1719 5.1263 10.1667 5.16016 10.1562 5.19141C10.1458 5.22266 10.1354 5.25911 10.125 5.30078C10.1146 5.34245 10.1042 5.38411 10.0938 5.42578H8.03125C8.02083 5.38411 8.01042 5.34766 8 5.31641C7.98958 5.28516 7.98438 5.2487 7.98438 5.20703C7.97396 5.17578 7.96615 5.14193 7.96094 5.10547C7.95573 5.06901 7.95312 5.04036 7.95312 5.01953C7.95312 4.98828 7.95573 4.95443 7.96094 4.91797C7.96615 4.88151 7.97396 4.84766 7.98438 4.81641C7.99479 4.77474 8.0026 4.73828 8.00781 4.70703C8.01302 4.67578 8.02083 4.63932 8.03125 4.59766H8.45312L8.26562 3.92578H6.75L6.54688 4.59766H6.96875C6.97917 4.63932 6.98958 4.67578 7 4.70703C7.01042 4.73828 7.01562 4.77474 7.01562 4.81641C7.02604 4.85807 7.03385 4.89453 7.03906 4.92578C7.04427 4.95703 7.04688 4.98828 7.04688 5.01953C7.04688 5.04036 7.04427 5.06901 7.03906 5.10547C7.03385 5.14193 7.02604 5.17578 7.01562 5.20703C7.00521 5.2487 6.9974 5.28516 6.99219 5.31641C6.98698 5.34766 6.97917 5.38411 6.96875 5.42578H4.95312C4.94271 5.38411 4.9349 5.34505 4.92969 5.30859C4.92448 5.27214 4.91667 5.23307 4.90625 5.19141C4.90625 5.14974 4.90365 5.11068 4.89844 5.07422C4.89323 5.03776 4.89062 5.00911 4.89062 4.98828C4.89062 4.95703 4.89062 4.92318 4.89062 4.88672C4.89062 4.85026 4.89583 4.8112 4.90625 4.76953C4.91667 4.73828 4.92448 4.70182 4.92969 4.66016C4.9349 4.61849 4.94271 4.58203 4.95312 4.55078H5.39062ZM8.04688 3.14453L7.51562 1.23828L6.95312 3.14453H8.04688ZM11.7656 4.55078V1.14453H11V1.97266C10.9688 1.99349 10.9323 2.01172 10.8906 2.02734C10.849 2.04297 10.8073 2.05078 10.7656 2.05078C10.7135 2.0612 10.6667 2.06641 10.625 2.06641C10.5833 2.06641 10.5469 2.06641 10.5156 2.06641C10.474 2.06641 10.4323 2.06641 10.3906 2.06641C10.349 2.06641 10.3073 2.0612 10.2656 2.05078C10.2135 2.04036 10.1693 2.02995 10.1328 2.01953C10.0964 2.00911 10.0625 1.99349 10.0312 1.97266V0.238281H14.7031V1.97266C14.6719 1.99349 14.6354 2.01172 14.5938 2.02734C14.5521 2.04297 14.5104 2.05078 14.4688 2.05078C14.4271 2.0612 14.3828 2.06641 14.3359 2.06641C14.2891 2.06641 14.25 2.06641 14.2188 2.06641C14.1875 2.06641 14.1484 2.06641 14.1016 2.06641C14.0547 2.06641 14.0104 2.0612 13.9688 2.05078C13.9271 2.04036 13.8854 2.02995 13.8438 2.01953C13.8021 2.00911 13.7656 1.99349 13.7344 1.97266V1.14453H12.9688V4.55078H13.4375C13.4479 4.58203 13.4583 4.61849 13.4688 4.66016C13.4792 4.70182 13.4844 4.73828 13.4844 4.76953C13.4948 4.8112 13.5026 4.84766 13.5078 4.87891C13.513 4.91016 13.5156 4.94661 13.5156 4.98828C13.5156 5.01953 13.513 5.05339 13.5078 5.08984C13.5026 5.1263 13.4948 5.16016 13.4844 5.19141C13.474 5.22266 13.4661 5.25911 13.4609 5.30078C13.4557 5.34245 13.4479 5.38411 13.4375 5.42578H11.2969C11.2865 5.38411 11.276 5.34505 11.2656 5.30859C11.2552 5.27214 11.25 5.23307 11.25 5.19141C11.25 5.14974 11.2474 5.11068 11.2422 5.07422C11.237 5.03776 11.2344 5.00911 11.2344 4.98828C11.2344 4.95703 11.2344 4.92318 11.2344 4.88672C11.2344 4.85026 11.2396 4.8112 11.25 4.76953C11.2604 4.73828 11.2682 4.70182 11.2734 4.66016C11.2786 4.61849 11.2865 4.58203 11.2969 4.55078H11.7656ZM14.9688 0.707031C14.9688 0.665365 14.9714 0.628906 14.9766 0.597656C14.9818 0.566406 14.9948 0.535156 15.0156 0.503906C15.026 0.472656 15.0417 0.44401 15.0625 0.417969C15.0833 0.391927 15.1042 0.36849 15.125 0.347656C15.1458 0.326823 15.1693 0.30599 15.1953 0.285156C15.2214 0.264323 15.2552 0.248698 15.2969 0.238281C15.3281 0.217448 15.3594 0.204427 15.3906 0.199219C15.4219 0.19401 15.4531 0.191406 15.4844 0.191406C15.526 0.191406 15.5625 0.19401 15.5938 0.199219C15.625 0.204427 15.6562 0.217448 15.6875 0.238281C15.7292 0.248698 15.7604 0.261719 15.7812 0.277344C15.8021 0.292969 15.8229 0.316406 15.8438 0.347656C15.875 0.36849 15.8984 0.391927 15.9141 0.417969C15.9297 0.44401 15.9427 0.472656 15.9531 0.503906C15.974 0.535156 15.987 0.566406 15.9922 0.597656C15.9974 0.628906 16 0.665365 16 0.707031C16 0.738281 15.9974 0.772135 15.9922 0.808594C15.987 0.845052 15.974 0.873698 15.9531 0.894531C15.9427 0.925781 15.9271 0.957031 15.9062 0.988281C15.8854 1.01953 15.8646 1.04557 15.8438 1.06641C15.8229 1.08724 15.7995 1.10547 15.7734 1.12109C15.7474 1.13672 15.7188 1.15495 15.6875 1.17578C15.6562 1.1862 15.625 1.19401 15.5938 1.19922C15.5625 1.20443 15.526 1.20703 15.4844 1.20703C15.4531 1.20703 15.4193 1.20443 15.3828 1.19922C15.3464 1.19401 15.3177 1.1862 15.2969 1.17578C15.2656 1.15495 15.2344 1.13672 15.2031 1.12109C15.1719 1.10547 15.1458 1.08724 15.125 1.06641C15.0938 1.03516 15.0703 1.00651 15.0547 0.980469C15.0391 0.954427 15.026 0.925781 15.0156 0.894531C14.9948 0.873698 14.9818 0.845052 14.9766 0.808594C14.9714 0.772135 14.9688 0.738281 14.9688 0.707031ZM15.4844 1.09766C15.5052 1.09766 15.5286 1.09766 15.5547 1.09766C15.5807 1.09766 15.6042 1.08724 15.625 1.06641C15.6562 1.05599 15.6823 1.04557 15.7031 1.03516C15.724 1.02474 15.7396 1.00911 15.75 0.988281C15.7604 0.977865 15.7734 0.959635 15.7891 0.933594C15.8047 0.907552 15.8177 0.889323 15.8281 0.878906C15.8385 0.847656 15.8464 0.81901 15.8516 0.792969C15.8568 0.766927 15.8594 0.738281 15.8594 0.707031C15.8594 0.675781 15.8594 0.647135 15.8594 0.621094C15.8594 0.595052 15.849 0.571615 15.8281 0.550781C15.8177 0.529948 15.8047 0.509115 15.7891 0.488281C15.7734 0.467448 15.7604 0.446615 15.75 0.425781C15.7396 0.415365 15.724 0.402344 15.7031 0.386719C15.6823 0.371094 15.6562 0.358073 15.625 0.347656C15.6042 0.33724 15.5807 0.329427 15.5547 0.324219C15.5286 0.31901 15.5052 0.316406 15.4844 0.316406C15.4531 0.316406 15.4271 0.31901 15.4062 0.324219C15.3854 0.329427 15.3594 0.33724 15.3281 0.347656C15.3073 0.36849 15.2865 0.384115 15.2656 0.394531C15.2448 0.404948 15.224 0.415365 15.2031 0.425781C15.1927 0.446615 15.1797 0.467448 15.1641 0.488281C15.1484 0.509115 15.1354 0.529948 15.125 0.550781C15.1146 0.571615 15.1068 0.595052 15.1016 0.621094C15.0964 0.647135 15.0938 0.675781 15.0938 0.707031C15.0938 0.738281 15.0964 0.766927 15.1016 0.792969C15.1068 0.81901 15.1146 0.847656 15.125 0.878906C15.1354 0.89974 15.1484 0.920573 15.1641 0.941406C15.1797 0.96224 15.1927 0.977865 15.2031 0.988281C15.224 1.00911 15.2448 1.02474 15.2656 1.03516C15.2865 1.04557 15.3073 1.05599 15.3281 1.06641C15.3594 1.07682 15.3854 1.08464 15.4062 1.08984C15.4271 1.09505 15.4531 1.09766 15.4844 1.09766ZM15.2969 0.910156V0.503906H15.2656C15.2656 0.503906 15.2656 0.498698 15.2656 0.488281C15.2656 0.477865 15.2656 0.472656 15.2656 0.472656V0.441406C15.2656 0.441406 15.2656 0.438802 15.2656 0.433594C15.2656 0.428385 15.2656 0.420573 15.2656 0.410156H15.5156C15.5156 0.410156 15.526 0.410156 15.5469 0.410156C15.5677 0.410156 15.5833 0.415365 15.5938 0.425781C15.6042 0.425781 15.6146 0.428385 15.625 0.433594C15.6354 0.438802 15.6458 0.446615 15.6562 0.457031C15.6667 0.467448 15.6745 0.477865 15.6797 0.488281C15.6849 0.498698 15.6875 0.509115 15.6875 0.519531C15.6875 0.529948 15.6901 0.540365 15.6953 0.550781C15.7005 0.561198 15.7031 0.576823 15.7031 0.597656C15.7031 0.608073 15.7005 0.621094 15.6953 0.636719C15.6901 0.652344 15.6875 0.665365 15.6875 0.675781C15.6771 0.696615 15.6641 0.71224 15.6484 0.722656C15.6328 0.733073 15.6146 0.74349 15.5938 0.753906L15.6719 0.925781H15.7031C15.7031 0.925781 15.7031 0.928385 15.7031 0.933594C15.7031 0.938802 15.7031 0.946615 15.7031 0.957031V0.988281C15.7031 0.988281 15.7031 0.990885 15.7031 0.996094C15.7031 1.0013 15.7031 1.00391 15.7031 1.00391H15.5938L15.4844 0.769531H15.3906V0.910156H15.4375C15.4375 0.910156 15.4375 0.915365 15.4375 0.925781C15.4375 0.936198 15.4375 0.941406 15.4375 0.941406V0.972656C15.4375 0.972656 15.4375 0.97526 15.4375 0.980469C15.4375 0.985677 15.4375 0.99349 15.4375 1.00391H15.2344C15.2344 1.00391 15.2344 0.998698 15.2344 0.988281C15.2344 0.977865 15.2344 0.972656 15.2344 0.972656V0.941406C15.2344 0.941406 15.2344 0.938802 15.2344 0.933594C15.2344 0.928385 15.2344 0.920573 15.2344 0.910156H15.2969ZM15.5 0.660156C15.5 0.660156 15.5104 0.660156 15.5312 0.660156C15.5521 0.660156 15.5625 0.654948 15.5625 0.644531C15.5729 0.634115 15.5807 0.623698 15.5859 0.613281C15.5911 0.602865 15.5938 0.592448 15.5938 0.582031C15.5938 0.571615 15.5911 0.561198 15.5859 0.550781C15.5807 0.540365 15.5729 0.529948 15.5625 0.519531C15.5625 0.509115 15.5573 0.503906 15.5469 0.503906C15.5365 0.503906 15.526 0.503906 15.5156 0.503906H15.4219V0.675781H15.5156L15.5 0.660156Z" fill="#324DC7"/>
</svg>
