<svg width="14" height="11" viewBox="0 0 14 11" fill="none" xmlns="http://www.w3.org/2000/svg">
<path d="M6.98633 10.6094C6.54883 10.6094 6.07943 10.6048 5.57812 10.5957C5.06771 10.5866 4.58691 10.5752 4.13574 10.5615C3.68457 10.5479 3.28125 10.5273 2.92578 10.5C2.57943 10.4818 2.33789 10.4635 2.20117 10.4453C1.64518 10.3542 1.20996 10.1582 0.895508 9.85742C0.581055 9.55664 0.350911 9.11914 0.205078 8.54492C0.177734 8.43555 0.154948 8.2487 0.136719 7.98438C0.109375 7.72917 0.0865885 7.44661 0.0683594 7.13672C0.0501302 6.82682 0.031901 6.52604 0.0136719 6.23438C0.00455729 5.93359 0 5.70117 0 5.53711V5.38672C0 5.22266 0.00455729 4.99023 0.0136719 4.68945C0.031901 4.39779 0.0501302 4.09928 0.0683594 3.79395C0.0865885 3.48861 0.109375 3.20378 0.136719 2.93945C0.154948 2.67513 0.177734 2.49284 0.205078 2.39258C0.350911 1.80925 0.581055 1.36719 0.895508 1.06641C1.20996 0.765625 1.64062 0.574219 2.1875 0.492188C2.32422 0.464844 2.57031 0.442058 2.92578 0.423828C3.27214 0.405599 3.67318 0.38737 4.12891 0.369141C4.58464 0.350911 5.06315 0.337239 5.56445 0.328125C6.07487 0.319011 6.54883 0.314453 6.98633 0.314453C7.43294 0.314453 7.9069 0.319011 8.4082 0.328125C8.9095 0.337239 9.38802 0.350911 9.84375 0.369141C10.2995 0.38737 10.7051 0.405599 11.0605 0.423828C11.4069 0.442058 11.653 0.464844 11.7988 0.492188C12.3457 0.583333 12.7764 0.779297 13.0908 1.08008C13.4053 1.38086 13.6354 1.81836 13.7812 2.39258C13.7812 2.39258 13.7812 2.39486 13.7812 2.39941C13.7812 2.40397 13.7812 2.40625 13.7812 2.40625C13.8268 2.61589 13.8724 3.08301 13.918 3.80762C13.9635 4.53223 13.9863 5.05859 13.9863 5.38672V5.55078C13.9863 5.87891 13.9635 6.40527 13.918 7.12988C13.8724 7.85449 13.8268 8.32161 13.7812 8.53125C13.6354 9.11458 13.4053 9.55664 13.0908 9.85742C12.7764 10.1582 12.3457 10.3542 11.7988 10.4453C11.653 10.4635 11.4023 10.4818 11.0469 10.5C10.7005 10.5273 10.2995 10.5479 9.84375 10.5615C9.38802 10.5752 8.9095 10.5866 8.4082 10.5957C7.9069 10.6048 7.43294 10.6094 6.98633 10.6094ZM7 1.35352C6.51693 1.35352 6.02018 1.35807 5.50977 1.36719C5.00846 1.3763 4.54134 1.3877 4.1084 1.40137C3.67546 1.41504 3.29948 1.43099 2.98047 1.44922C2.66146 1.46745 2.45182 1.48568 2.35156 1.50391C2.05078 1.54948 1.81152 1.64518 1.63379 1.79102C1.45605 1.93685 1.3125 2.2194 1.20312 2.63867C1.17578 2.76628 1.13932 3.16732 1.09375 3.8418C1.04818 4.51628 1.02539 5.03125 1.02539 5.38672V5.55078C1.02539 5.90625 1.0459 6.42122 1.08691 7.0957C1.12793 7.77018 1.16667 8.17122 1.20312 8.29883C1.3125 8.7181 1.45605 9.00065 1.63379 9.14648C1.81152 9.29232 2.05534 9.38802 2.36523 9.43359C2.46549 9.45182 2.67057 9.47005 2.98047 9.48828C3.29948 9.50651 3.67546 9.52246 4.1084 9.53613C4.54134 9.5498 5.00846 9.5612 5.50977 9.57031C6.02018 9.57943 6.51693 9.58398 7 9.58398C7.48307 9.58398 7.97982 9.57943 8.49023 9.57031C8.99154 9.5612 9.45866 9.5498 9.8916 9.53613C10.3245 9.52246 10.7005 9.50651 11.0195 9.48828C11.3385 9.47005 11.5482 9.45182 11.6484 9.43359C11.9492 9.38802 12.1908 9.29232 12.373 9.14648C12.5553 9.00065 12.6966 8.7181 12.7969 8.29883C12.8242 8.17122 12.863 7.77246 12.9131 7.10254C12.9632 6.43262 12.9883 5.91536 12.9883 5.55078V5.38672C12.9883 5.03125 12.9655 4.51855 12.9199 3.84863C12.8743 3.17871 12.8333 2.77539 12.7969 2.63867C12.6966 2.2194 12.5553 1.93685 12.373 1.79102C12.1908 1.64518 11.9492 1.54948 11.6484 1.50391C11.5391 1.48568 11.3294 1.46745 11.0195 1.44922C10.7096 1.43099 10.3382 1.41504 9.90527 1.40137C9.47233 1.3877 9.00521 1.3763 8.50391 1.36719C7.99349 1.35807 7.49219 1.35352 7 1.35352ZM4.94922 8.46289V2.78906L10.1445 5.55078L4.94922 8.46289Z" fill="white"/>
</svg>
