<svg width="45" height="40" viewBox="0 0 45 40" fill="none" xmlns="http://www.w3.org/2000/svg">
<g clip-path="url(#clip0_7859_8596)">
<path opacity="0.39" d="M24.6984 25.132H3.09843C2.49843 25.132 1.89844 24.632 1.89844 23.932V23.532C1.89844 22.932 2.39843 22.332 3.09843 22.332H24.6984C25.2984 22.332 25.8984 22.832 25.8984 23.532V23.932C25.7984 24.632 25.2984 25.132 24.6984 25.132Z" fill="#999999"/>
<path d="M17.7031 14.332C18.5316 14.332 19.2031 13.6605 19.2031 12.832C19.2031 12.0036 18.5316 11.332 17.7031 11.332C16.8747 11.332 16.2031 12.0036 16.2031 12.832C16.2031 13.6605 16.8747 14.332 17.7031 14.332Z" fill="#E67581"/>
<path d="M14.8016 10.3314C14.8016 10.2314 14.8016 10.2314 14.8016 10.3314ZM14.8016 10.3314C16.5016 8.63138 19.1016 8.63138 20.7016 10.2314C20.7016 10.2314 20.7016 10.3314 20.8016 10.3314M13.0016 8.53138C13.0016 8.43138 13.0016 8.43138 13.0016 8.53138ZM13.0016 8.53138C15.7016 5.83138 19.9016 5.83138 22.5016 8.43138C22.5016 8.43138 22.5016 8.53138 22.6016 8.53138M11.1016 6.63138C14.8016 2.93138 20.6016 2.93138 24.3016 6.53138C24.3016 6.53138 24.3016 6.63138 24.4016 6.63138" stroke="black" stroke-width="0.5" stroke-miterlimit="10" stroke-linecap="round" stroke-linejoin="round"/>
<path d="M17.7031 14.332C18.5316 14.332 19.2031 13.6605 19.2031 12.832C19.2031 12.0036 18.5316 11.332 17.7031 11.332C16.8747 11.332 16.2031 12.0036 16.2031 12.832C16.2031 13.6605 16.8747 14.332 17.7031 14.332Z" fill="#00C4EF" stroke="black" stroke-width="0.5" stroke-miterlimit="10" stroke-linecap="round" stroke-linejoin="round"/>
<path d="M22.9 22.3305H4.5C4.10537 22.3203 3.72969 22.1591 3.45055 21.8799C3.17141 21.6008 3.01012 21.2251 3 20.8305V18.7305C3.01012 18.3358 3.17141 17.9602 3.45055 17.681C3.72969 17.4019 4.10537 17.2406 4.5 17.2305H22.9C23.2946 17.2406 23.6703 17.4019 23.9494 17.681C24.2286 17.9602 24.3899 18.3358 24.4 18.7305V20.8305C24.3899 21.2251 24.2286 21.6008 23.9494 21.8799C23.6703 22.1591 23.2946 22.3203 22.9 22.3305Z" fill="#AB8787" stroke="black" stroke-width="0.5" stroke-miterlimit="10" stroke-linecap="round" stroke-linejoin="round"/>
<path d="M6.60343 23.8316H6.00343C5.30343 23.8316 4.70343 23.2316 4.70343 22.5316V22.3316H7.80343V22.5316C7.80343 23.2316 7.30343 23.8316 6.60343 23.8316ZM21.3034 23.8316H20.8034C20.1034 23.8316 19.5034 23.2316 19.5034 22.5316V22.3316H22.6034V22.5316C22.5034 23.2316 22.0034 23.8316 21.3034 23.8316ZM11.4034 20.6316H5.40343C5.31076 20.6343 5.21849 20.6181 5.13231 20.5839C5.04613 20.5497 4.96786 20.4983 4.9023 20.4327C4.83673 20.3671 4.78527 20.2889 4.75107 20.2027C4.71688 20.1165 4.70066 20.0242 4.70343 19.9316V19.7316C4.70066 19.6389 4.71688 19.5466 4.75107 19.4604C4.78527 19.3743 4.83673 19.296 4.9023 19.2304C4.96786 19.1649 5.04613 19.1134 5.13231 19.0792C5.21849 19.045 5.31076 19.0288 5.40343 19.0316H11.4034C11.4961 19.0288 11.5884 19.045 11.6746 19.0792C11.7607 19.1134 11.839 19.1649 11.9046 19.2304C11.9701 19.296 12.0216 19.3743 12.0558 19.4604C12.09 19.5466 12.1062 19.6389 12.1034 19.7316V19.9316C12.1034 20.2316 11.8034 20.6316 11.4034 20.6316Z" fill="white" stroke="black" stroke-width="0.5" stroke-miterlimit="10" stroke-linecap="round" stroke-linejoin="round"/>
<path d="M14.7016 20.8328C15.3091 20.8328 15.8016 20.3403 15.8016 19.7328C15.8016 19.1253 15.3091 18.6328 14.7016 18.6328C14.094 18.6328 13.6016 19.1253 13.6016 19.7328C13.6016 20.3403 14.094 20.8328 14.7016 20.8328Z" fill="white" stroke="black" stroke-width="0.5" stroke-miterlimit="10" stroke-linecap="round" stroke-linejoin="round"/>
<path d="M18.1 20.8328C18.7075 20.8328 19.2 20.3403 19.2 19.7328C19.2 19.1253 18.7075 18.6328 18.1 18.6328C17.4925 18.6328 17 19.1253 17 19.7328C17 20.3403 17.4925 20.8328 18.1 20.8328Z" fill="white" stroke="black" stroke-width="0.5" stroke-miterlimit="10" stroke-linecap="round" stroke-linejoin="round"/>
<path d="M21.3969 20.8328C22.0044 20.8328 22.4969 20.3403 22.4969 19.7328C22.4969 19.1253 22.0044 18.6328 21.3969 18.6328C20.7894 18.6328 20.2969 19.1253 20.2969 19.7328C20.2969 20.3403 20.7894 20.8328 21.3969 20.8328Z" fill="white" stroke="black" stroke-width="0.5" stroke-miterlimit="10" stroke-linecap="round" stroke-linejoin="round"/>
<path d="M7.49687 17.232H4.79688L5.39687 11.132V3.53203C5.39687 3.34638 5.47062 3.16833 5.6019 3.03706C5.73317 2.90578 5.91122 2.83203 6.09687 2.83203C6.28252 2.83203 6.46057 2.90578 6.59185 3.03706C6.72313 3.16833 6.79688 3.34638 6.79688 3.53203V11.132L7.49687 17.232Z" fill="white" stroke="black" stroke-width="0.5" stroke-miterlimit="10" stroke-linecap="round" stroke-linejoin="round"/>
</g>
<defs>
<clipPath id="clip0_7859_8596">
<rect width="45" height="39" fill="white" transform="translate(0 0.332031)"/>
</clipPath>
</defs>
</svg>
